<svg width="18" height="20" viewBox="0 0 18 20" fill="none" xmlns="http://www.w3.org/2000/svg">
<g clip-path="url(#clip0_501_35)">
<path d="M17.1 10.7999C17.5 10.7999 18 10.4999 18 9.99989C18 9.49989 17.6 9.19989 17.1 9.19989H16.1V7.19989H17.1C17.6 7.29989 18 6.99989 18 6.49989C18 6.09989 17.7 5.69989 17.1 5.69989H16.1V3.19989C16.1 2.89989 16.1 1.79989 15.1 0.899885C14.8 0.499885 14 -0.000114601 12.8 -0.000114601H3.4C1 -0.100115 0 1.79989 0 3.09989V15.9999C0.1 17.8999 1.2 19.9999 3.4 19.9999H12.8C13.7 19.9999 14.4 19.6999 14.9 19.1999C16.1 18.0999 16.1 16.1999 16.1 16.0999V14.1999H17.1C17.5 14.1999 18 13.8999 18 13.3999C18 12.9999 17.6 12.5999 17.1 12.5999H16.1V10.7999H17.1V10.7999ZM13.5 12.5999H12.9C12.5 12.5999 12 12.8999 12 13.3999C12 13.7999 12.3 14.1999 12.9 14.1999H13.5V15.9999C13.5 16.4999 13.3 17.1999 13.1 17.3999C13.1 17.3999 13 17.4999 12.9 17.4999H3.4C2.9 17.4999 2.6 16.2999 2.6 15.9999V3.19989C2.6 2.89989 2.7 2.39989 3.4 2.39989H12.7C12.9 2.39989 13.1 2.39989 13.2 2.49989C13.3 2.59989 13.4 2.89989 13.4 2.99989V5.69989H12.8C12.4 5.69989 12 5.99989 12 6.49989C12.1 6.89989 12.4 7.29989 12.9 7.29989H13.5V9.29989H12.9C12.4 9.29989 12 9.59989 12 9.99989C12 10.3999 12.3 10.7999 12.9 10.7999H13.5V12.5999Z" fill="#01AE7E"/>
<path d="M10.4997 13.2992C10.1997 11.9992 9.49969 9.99922 8.19969 9.39922C9.09969 9.19922 9.69969 8.39922 9.69969 7.59922C9.69969 6.49922 8.69969 5.69922 7.59969 5.69922C6.39969 5.69922 5.49969 6.59922 5.49969 7.59922C5.49969 8.39922 6.09969 9.19922 6.99969 9.39922C5.49969 9.99922 4.79969 11.9992 4.49969 13.1992C4.39969 13.6992 4.79969 14.1992 5.39969 14.1992C5.39969 14.1992 9.19969 14.1992 9.69969 14.1992C10.0997 14.1992 10.6997 13.7992 10.4997 13.2992Z" fill="#01AE7E"/>
</g>
<defs>
<clipPath id="clip0_501_35">
<rect width="18" height="20" fill="white"/>
</clipPath>
</defs>
</svg>
