<svg width="44" height="33" viewBox="0 0 44 33" fill="none" xmlns="http://www.w3.org/2000/svg">
<path d="M21.6 26.8998C21.7 26.5998 21.8 26.3998 21.8 26.0998C21.8 25.9998 21.8 25.7998 21.7 25.5998C21.7 25.4998 21.6 25.3998 21.6 25.2998C21.6 25.1998 21.6 25.1998 21.6 25.0998C20.8 21.6998 20 18.2998 19.2 14.8998C19.2 14.6998 19.1 14.5998 19.1 14.3998C19.1 14.2998 19 14.0998 19 13.9998C19 13.8998 19 13.8998 19 13.8998C19.1 13.7998 19.1 13.7998 19.1 13.6998C19.1 13.6998 19.1 13.5998 19.2 13.5998L23 8.1998C23 8.0998 23.1 8.0998 23.1 7.9998C23.2 7.7998 23.2 7.5998 23.2 7.3998C23.2 7.1998 23.1 7.0998 22.9 6.9998C22.8 6.8998 22.7 6.8998 22.7 6.7998C22.6 6.6998 22.5 6.5998 22.3 6.5998C22.2 6.4998 22 6.3998 21.9 6.2998C21.8 6.1998 21.6 6.1998 21.5 6.1998C21.3 6.1998 21.1 6.2998 21 6.3998L20.9 6.4998C18.3 9.2998 15.7 12.0998 13.2 14.8998C13.2 14.8998 13.1 14.9998 13.1 15.0998C13 15.0998 13 15.1998 13 15.2998C13 15.5998 13 15.7998 13.1 15.9998C13.2 16.1998 13.2 16.3998 13.3 16.4998C13.4 16.6998 13.4 16.7998 13.5 16.9998C13.5 17.0998 13.6 17.1998 13.6 17.3998C13.6 17.4998 13.6 17.4998 13.7 17.5998C13.8 17.7998 13.9 17.9998 14.2 17.9998C14.3 17.9998 14.4 18.0998 14.4 18.0998C14.5 18.0998 14.5 18.1998 14.5 18.1998C14.5 18.2998 14.5 18.2998 14.5 18.3998C14.5 18.4998 14.5 18.4998 14.5 18.4998C14.7 19.4998 15 20.4998 15.2 21.3998C15.1 21.3998 15.1 21.3998 15 21.3998L13.7 21.6998C12.5 21.9998 11.4 22.2998 10.2 22.4998C10.2 22.3998 10.2 22.1998 10.1 22.0998L10 21.0998C9.8 19.6998 9.5 18.2998 9.3 16.8998C9.1 15.4998 8.8 14.0998 8.6 12.5998L8.4 11.4998C8.1 9.7998 7.8 8.0998 7.5 6.2998V6.1998C7.5 6.0998 7.5 5.9998 7.5 5.8998C7.5 5.7998 7.5 5.6998 7.6 5.5998C8.3 4.6998 8.9 3.7998 9.6 2.7998L9.7 2.5998C9.7 2.4998 9.8 2.4998 9.8 2.3998C10 2.0998 10 1.6998 9.7 1.3998C9.5 1.3998 9.4 1.2998 9.3 1.1998C9.1 0.999805 8.9 0.799805 8.7 0.499805C8.5 0.399805 8.4 0.299805 8.2 0.299805C8 0.299805 7.9 0.399805 7.8 0.499805L7.7 0.599805L7.5 0.699805C7.4 0.799805 7.2 0.999805 7.1 1.0998C5 3.0998 3 5.0998 0.9 6.9998C0.8 7.1998 0.6 7.2998 0.5 7.3998C0.4 7.4998 0.3 7.5998 0.2 7.6998C0.1 7.8998 0 7.9998 0 8.1998V8.2998V8.3998C0 8.7998 0.1 9.0998 0.2 9.4998C0.7 11.2998 1.1 13.0998 1.6 14.8998C2.2 17.1998 2.8 19.4998 3.4 21.7998C3.5 22.2998 3.7 22.8998 3.8 23.3998C3.8 23.4998 3.8 23.4998 3.9 23.5998C3.9 23.5998 3.9 23.5998 3.8 23.5998C3.7 23.5998 3.6 23.4998 3.5 23.4998C3.2 23.4998 2.9 23.6998 2.8 23.9998C2.8 24.0998 2.7 24.1998 2.7 24.2998C2.6 24.4998 2.6 24.5998 2.5 24.6998C2.4 24.8998 2.4 25.1998 2.4 25.3998C2.5 25.5998 2.6 25.7998 2.8 25.8998C2.9 25.8998 3 25.9998 3.1 25.9998L4.8 26.7998C6.3 27.4998 7.8 28.1998 9.4 28.8998C9.5 28.8998 9.6 28.9998 9.7 28.9998C9.7 28.9998 9.8 28.9998 9.8 29.0998C9.9 29.0998 10 29.0998 10 29.0998C10.1 29.0998 10.3 29.0998 10.4 28.9998C10.6 28.8998 10.8 28.6998 11 28.3998C11.1 28.1998 11.2 27.9998 11.1 27.7998C11.1 27.4998 11 27.2998 11 26.9998V26.5998C11 26.2998 10.9 25.9998 10.9 25.6998C11.8 25.4998 15.2 24.7998 16.1 24.6998C16.5 25.8998 16.8 27.0998 17.2 28.3998C17.3 28.5998 17.3 28.8998 17.4 29.0998L17.5 29.2998C17.5 29.3998 17.5 29.4998 17.5 29.5998C17.4 29.9998 17.3 30.3998 17.3 30.6998C17.3 30.8998 17.2 30.9998 17.2 31.1998C17.2 31.5998 17.4 31.8998 17.7 31.9998C17.9 32.0998 18.1 32.0998 18.4 32.1998C18.5 32.1998 18.6 32.1998 18.6 32.2998H18.7C18.9 32.2998 19.1 32.1998 19.3 31.9998C19.4 31.8998 19.4 31.7998 19.4 31.6998C19.6 31.1998 19.9 30.6998 20.1 30.0998C20.6 29.1998 21.1 28.0998 21.6 26.8998ZM18.9 31.1998C18.9 31.2998 18.8 31.3998 18.7 31.4998C18.6 31.5998 18.6 31.5998 18.5 31.5998C18.4 31.5998 18.2 31.5998 18.1 31.5998C18 31.5998 17.9 31.4998 17.9 31.3998C17.9 31.2998 17.9 31.1998 17.9 31.1998C18 30.8998 18 30.5998 18.1 30.3998C18.2 30.0998 18.2 29.6998 18.2 29.3998C18.2 29.2998 18.2 29.1998 18.1 29.0998C17.7 27.7998 17.3 26.4998 16.9 25.1998C16.8 24.8998 16.7 24.5998 16.6 24.2998V24.1998C16.5 24.1998 16.5 24.1998 16.5 24.1998C15.2 24.4998 13.9 24.6998 12.6 24.9998C11.9 25.0998 11.2 25.2998 10.5 25.4998C10.4 25.4998 10.2 25.5998 10.1 25.5998C10.1 25.6998 10.1 25.7998 10.1 25.8998C10.2 26.5998 10.4 27.2998 10.5 28.0998V28.1998V28.2998C10.4 28.4998 10.3 28.5998 10.1 28.6998C9.9 28.6998 9.8 28.6998 9.6 28.5998C9.2 28.3998 8.8 28.1998 8.3 27.9998C6.7 27.2998 5.2 26.4998 3.6 25.7998C3.5 25.6998 3.4 25.6998 3.2 25.5998C3.1 25.5998 3.1 25.4998 3.1 25.4998C3.1 25.3998 3.1 25.1998 3.1 25.0998C3.1 24.9998 3.2 24.8998 3.2 24.7998C3.2 24.6998 3.3 24.6998 3.4 24.6998C3.5 24.6998 3.6 24.6998 3.7 24.6998C4 24.7998 4.3 24.8998 4.6 25.0998C4.7 25.0998 4.8 25.1998 4.9 25.1998C4.9 25.0998 4.9 24.9998 4.9 24.8998C4.6 23.5998 4.2 22.2998 3.9 20.8998C2.9 17.1998 1.9 13.3998 1 9.6998C0.8 9.0998 0.8 8.5998 0.9 8.1998C0.9 8.0998 0.9 7.9998 1 7.8998C1.2 7.6998 1.3 7.5998 1.5 7.3998C2.6 6.2998 3.8 5.1998 5 4.0998C6 3.1998 6.9 2.2998 7.9 1.3998C8 1.2998 8.1 1.2998 8.2 1.2998C8.3 1.2998 8.4 1.2998 8.4 1.3998C8.6 1.5998 8.7 1.6998 8.9 1.8998C9 1.9998 9.1 2.0998 9 2.2998C9 2.3998 8.9 2.3998 8.9 2.4998C8.2 3.3998 7.6 4.1998 6.9 5.0998C6.9 5.1998 6.8 5.1998 6.8 5.2998C6.6 5.4998 6.6 5.6998 6.6 5.8998C6.7 6.3998 6.8 6.8998 6.8 7.3998C7 8.2998 7.2 9.1998 7.3 10.0998C7.4 10.9998 7.6 11.8998 7.7 12.7998C7.8 13.6998 8 14.5998 8.2 15.4998C8.4 16.4998 8.5 17.3998 8.7 18.3998C8.9 19.3998 9 20.2998 9.2 21.2998C9.3 21.9998 9.5 22.6998 9.6 23.3998C9.6 23.4998 9.6 23.4998 9.6 23.5998C9.7 23.5998 9.8 23.5998 9.9 23.5998C11.2 23.2998 12.6 22.8998 13.9 22.5998C14.5 22.3998 15.1 22.2998 15.8 22.0998C15.9 22.0998 16 22.0998 16.1 21.9998C16.1 21.8998 16.1 21.8998 16.1 21.8998C15.7 20.5998 15.4 19.1998 15 17.8998C14.9 17.6998 14.9 17.5998 14.7 17.4998C14.6 17.4998 14.5 17.3998 14.4 17.3998C14.3 17.3998 14.2 17.2998 14.2 17.1998C14 16.7998 13.9 16.3998 13.8 15.9998C13.7 15.7998 13.8 15.5998 13.9 15.3998L14 15.2998C16.4 12.5998 18.9 9.9998 21.3 7.2998L21.4 7.1998C21.5 7.0998 21.7 7.0998 21.8 7.1998C22 7.2998 22.1 7.3998 22.3 7.4998C22.5 7.6998 22.5 7.8998 22.4 8.0998C22.3 8.1998 22.2 8.2998 22.2 8.3998C21 9.9998 19.9 11.5998 18.7 13.2998C18.6 13.4998 18.5 13.6998 18.3 13.7998C18.3 13.8998 18.2 13.8998 18.3 13.9998C18.4 14.5998 18.5 15.0998 18.7 15.6998C19.4 18.8998 20.2 22.0998 20.9 25.1998C20.9 25.2998 20.9 25.3998 21 25.4998C21 25.6998 21 25.9998 21 26.1998C21 26.2998 20.9 26.4998 20.9 26.5998C20.4 27.5998 20 28.6998 19.5 29.6998C19.3 30.1998 19.1 30.6998 18.9 31.1998Z" fill="#1D1D1B"/>
<path d="M42.9996 6.6C42.7996 6.4 42.4996 6.1 42.3996 6C40.9996 4.7 39.5996 3.5 38.1996 2.2L35.9996 0.2C35.9996 0.2 35.9996 0.2 35.8996 0.1C35.8996 0.1 35.7996 0 35.5996 0C35.3996 0 35.2996 0.1 35.0996 0.2C34.6996 0.6 34.3996 0.9 34.0996 1.2C33.7996 1.5 33.7996 1.8 33.9996 2.2C33.9996 2.3 34.0996 2.3 34.0996 2.4L34.6996 3C35.1996 3.7 35.1996 3.9 35.6996 4.6C35.7996 4.7 35.7996 4.7 35.6996 4.8C35.5996 5.2 34.9996 11.7 34.9996 11.7C34.7996 12.9 34.5996 14 34.2996 15.2L33.3996 20C33.1996 20.8 33.0996 21.7 32.8996 22.5C32.4996 22.4 31.9996 22.3 31.5996 22.2L30.5996 22C29.8996 21.9 29.1996 21.7 28.4996 21.6C27.7996 21.5 27.0996 21.3 26.3996 21.2C26.3996 21.1 26.3996 21.1 26.3996 21C26.2996 20.7 26.2996 20.4 26.1996 20.1C26.0996 19.3 25.8996 18.5 25.7996 17.8C25.5996 16.7 25.3996 15.7 25.2996 14.6C25.1996 13.8 24.9996 12.9 24.8996 12.1C24.8996 12 24.8996 12 24.8996 11.9C24.8996 11.9 24.8996 11.8 24.9996 11.8C24.9996 11.8 24.9996 11.8 24.9996 11.7C25.4996 10.4 26.0996 9.1 26.5996 7.8C26.5996 7.8 26.5996 7.8 26.5996 7.7C26.5996 7.6 26.6996 7.6 26.6996 7.5C26.7996 7 26.6996 6.7 26.2996 6.5C26.0996 6.4 25.9996 6.4 25.7996 6.3C25.6996 6.2 25.5996 6.2 25.3996 6.1C25.2996 6.1 25.2996 6.1 25.1996 6C25.0996 6 25.0996 6 24.9996 6C24.8996 6 24.6996 6 24.4996 6.3L24.3996 6.4L23.5996 7.5C22.1996 9.5 20.6996 11.5 19.2996 13.4C19.0996 13.6 19.0996 13.9 19.0996 14.2C19.1996 14.4 19.1996 14.7 19.2996 14.9L19.3996 15.1C19.5996 16 19.7996 16.8 19.9996 17.7C20.3996 19.6 20.8996 21.5 21.2996 23.3C21.3996 23.8 21.4996 24.3 21.5996 24.9C21.6996 25.3 21.7996 25.7 21.8996 26.1C21.8996 26.2 21.8996 26.3 21.8996 26.4C21.8996 26.5 21.7996 26.5 21.7996 26.6C21.7996 26.7 21.6996 26.8 21.6996 26.8C21.1996 27.8 20.6996 28.7 20.1996 29.7C20.0996 29.8 20.0996 30 19.9996 30.1C19.8996 30.4 19.6996 30.7 19.5996 31C19.3996 31.4 19.4996 31.8 19.7996 32C19.7996 32 19.7996 32 19.8996 32C19.9996 32.1 20.1996 32.2 20.3996 32.2C20.4996 32.2 20.4996 32.2 20.5996 32.2C20.7996 32.2 20.8996 32.1 20.9996 32C21.3996 31.7 21.6996 31.5 22.0996 31.2L22.9996 30.6C24.3996 29.6 25.7996 28.6 27.1996 27.6C27.4996 27.4 27.5996 27.1 27.5996 26.7C27.5996 26.4 27.3996 25.7 27.3996 25.1C27.3996 25 27.3996 24.9 27.3996 24.8C28.6996 25 29.9996 25.2 31.2996 25.5C31.6996 25.6 31.9996 25.6 32.3996 25.7C32.3996 25.9 32.2996 26 32.2996 26.2C32.2996 26.4 32.1996 26.7 32.1996 26.9C32.1996 27.2 32.1996 27.5 32.3996 27.7C32.5996 27.9 32.7996 28.2 32.9996 28.4C33.0996 28.6 33.2996 28.7 33.4996 28.7C33.6996 28.7 33.8996 28.6 33.9996 28.5C34.3996 28.3 34.7996 28.1 35.2996 27.9C36.2996 27.4 37.3996 27 38.3996 26.5C38.9996 26.2 39.5996 26 40.0996 25.7L40.5996 25.5C40.6996 25.4 40.7996 25.4 40.9996 25.3C41.1996 25.2 41.2996 24.9 41.1996 24.7C41.1996 24.6 41.0996 24.4 40.9996 24.3C40.8996 24.1 40.6996 23.9 40.5996 23.7C40.4996 23.5 40.3996 23.4 40.1996 23.2C39.9996 23.1 39.8996 23 39.6996 23C39.6996 23 39.6996 23 39.5996 23C39.4996 23 39.3996 23 39.2996 23.1C39.1996 23.1 39.0996 23.2 39.0996 23.2L39.2996 22.5C39.5996 21.6 39.8996 20.6 40.0996 19.7C41.3996 15.4 42.3996 11.9 43.3996 8.6C43.4996 8.4 43.4996 8 43.4996 7.4C43.4996 7.1 43.3996 7 42.9996 6.6ZM42.7996 7.4C42.7996 7.7 42.7996 8.1 42.6996 8.4C41.6996 11.8 40.6996 15.1 39.6996 18.5C39.1996 20.3 38.5996 22.1 38.0996 23.9C38.0996 24 37.9996 24.1 37.9996 24.2C38.0996 24.2 38.0996 24.2 38.0996 24.2C38.4996 24.1 38.7996 23.9 39.1996 23.8C39.2996 23.8 39.3996 23.7 39.4996 23.7C39.5996 23.7 39.7996 23.7 39.7996 23.8C39.8996 24 39.9996 24.1 40.0996 24.3C40.0996 24.4 40.1996 24.4 40.1996 24.5C40.2996 24.7 40.1996 24.8 40.0996 24.8C39.9996 24.8 39.8996 24.9 39.7996 24.9C37.8996 25.8 35.9996 26.6 34.0996 27.5C33.9996 27.6 33.7996 27.6 33.6996 27.7C33.5996 27.7 33.5996 27.7 33.4996 27.8C33.3996 27.8 33.2996 27.8 33.1996 27.7C33.0996 27.5 32.9996 27.4 32.7996 27.2C32.6996 27.1 32.6996 27 32.6996 26.9C32.7996 26.6 32.7996 26.4 32.8996 26.1C32.9996 25.8 32.9996 25.5 33.0996 25.3C33.0996 25.2 33.0996 25.2 33.0996 25.1C30.8996 24.7 28.7996 24.3 26.5996 23.9C26.4996 23.9 26.3996 23.9 26.3996 23.9C26.3996 24 26.3996 24 26.3996 24.1C26.4996 24.6 26.5996 25.2 26.6996 25.7C26.7996 26 26.7996 26.3 26.8996 26.6C26.8996 26.7 26.8996 26.8 26.8996 26.9C26.7996 27 26.6996 27.1 26.5996 27.1C25.3996 28 24.1996 28.9 22.9996 29.7C22.3996 30.2 21.6996 30.6 21.0996 31.1C20.9996 31.2 20.8996 31.2 20.7996 31.3C20.6996 31.3 20.5996 31.4 20.5996 31.3C20.4996 31.3 20.3996 31.2 20.3996 31C20.3996 30.9 20.4996 30.8 20.4996 30.7C20.7996 30 21.1996 29.4 21.4996 28.7C21.8996 28 22.2996 27.2 22.6996 26.5C22.7996 26.3 22.7996 26.1 22.7996 25.9C21.8996 22 20.9996 18.1 20.0996 14.2C20.0996 14.1 20.0996 14 19.9996 13.9C19.9996 13.8 19.9996 13.7 20.0996 13.6C21.6996 11.4 23.2996 9.2 24.8996 6.9C24.8996 6.8 24.9996 6.8 24.9996 6.7C25.0996 6.6 25.1996 6.6 25.2996 6.6C25.5996 6.6 25.7996 6.7 25.9996 6.9C25.9996 7.2 26.0996 7.3 25.9996 7.4C25.9996 7.5 25.8996 7.6 25.8996 7.7C25.5996 8.4 25.3996 9.1 25.0996 9.7C24.7996 10.3 24.5996 11 24.2996 11.6C24.1996 11.8 24.1996 12 24.1996 12.2C24.2996 12.8 24.3996 13.3 24.4996 13.9C24.6996 14.9 24.8996 15.9 24.9996 17C25.2996 18.5 25.5996 20.1 25.7996 21.6C25.7996 21.7 25.7996 21.7 25.7996 21.8C25.8996 21.8 26.0996 21.9 26.1996 21.9C28.5996 22.4 30.8996 22.9 33.2996 23.4C33.2996 23.4 33.2996 23.4 33.3996 23.4C33.3996 23.2 33.4996 23.1 33.4996 22.9C33.7996 21.5 36.1996 5.8 36.3996 4.8C36.3996 4.6 36.3996 4.4 36.2996 4.2C35.6996 3.5 35.5996 3.2 34.9996 2.5C34.8996 2.4 34.7996 2.3 34.7996 2.2C34.6996 2 34.6996 1.8 34.7996 1.6C34.9996 1.3 35.1996 1.2 35.2996 1C35.4996 0.8 35.6996 0.8 35.8996 1C36.1996 1.3 36.5996 1.6 36.8996 1.9C38.7996 3.6 42.7996 7.3 42.7996 7.4Z" fill="#1D1D1B"/>
<path d="M21.2 26.4998C21.3 26.1998 21.4 25.9998 21.4 25.6998C21.4 25.5998 21.4 25.3998 21.3 25.1998C21.3 25.0998 21.2 24.9998 21.2 24.8998C21.2 24.7998 21.2 24.7998 21.2 24.6998C20.4 21.3998 19.7 17.9998 18.9 14.6998C18.9 14.4998 18.8 14.3998 18.8 14.1998C18.8 14.0998 18.7 13.8998 18.7 13.7998C18.7 13.6998 18.7 13.6998 18.7 13.6998C18.8 13.5998 18.8 13.5998 18.8 13.4998C18.8 13.4998 18.8 13.3998 18.9 13.3998L22.5 8.0998C22.5 7.9998 22.6 7.9998 22.6 7.8998C22.7 7.6998 22.7 7.4998 22.7 7.2998C22.7 7.0998 22.6 6.9998 22.4 6.8998C22.3 6.7998 22.3 6.7998 22.2 6.6998C22.1 6.5998 22 6.4998 21.9 6.4998C21.8 6.3998 21.6 6.2998 21.5 6.1998C21.4 5.9998 21.3 5.9998 21.2 5.9998C21 5.9998 20.8 6.0998 20.7 6.1998L20.6 6.2998C18.1 9.0998 15.6 11.7998 13 14.5998C13 14.5998 12.9 14.6998 12.9 14.7998C12.8 14.8998 12.8 14.9998 12.8 15.0998C12.8 15.3998 12.8 15.5998 12.9 15.7998C13 15.9998 13 16.0998 13.1 16.2998C13.2 16.4998 13.2 16.5998 13.3 16.7998C13.3 16.8998 13.4 16.9998 13.4 17.1998C13.4 17.2998 13.4 17.2998 13.5 17.3998C13.6 17.5998 13.7 17.7998 14 17.7998C14.1 17.7998 14.2 17.8998 14.2 17.8998C14.3 17.8998 14.3 17.9998 14.3 17.9998C14.3 18.0998 14.3 18.0998 14.3 18.1998C14.3 18.2998 14.3 18.2998 14.3 18.2998C14.5 19.2998 14.8 20.1998 15 21.1998C14.9 21.1998 14.9 21.1998 14.9 21.1998L13.6 21.4998C12.5 21.7998 11.3 21.9998 10.2 22.2998C10.2 22.1998 10.2 21.9998 10.1 21.8998L9.9 20.7998C9.7 19.3998 9.4 18.0998 9.2 16.6998C9 15.2998 8.7 13.8998 8.5 12.4998L8.3 11.3998C7.9 9.6998 7.6 7.8998 7.3 6.1998V6.0998C7.3 5.9998 7.3 5.8998 7.3 5.7998C7.3 5.6998 7.3 5.5998 7.4 5.4998C8 4.5998 8.7 3.6998 9.3 2.7998L9.4 2.5998C9.4 2.4998 9.5 2.4998 9.5 2.3998C9.7 2.0998 9.7 1.6998 9.4 1.4998C9.3 1.3998 9.2 1.2998 9.1 1.1998C8.9 0.999805 8.7 0.699805 8.5 0.499805C8.3 0.399805 8.2 0.299805 8 0.299805C7.9 0.299805 7.7 0.399805 7.6 0.399805L7.5 0.499805L7.4 0.699805C7.2 0.799805 7.1 0.999805 6.9 1.0998C4.9 2.9998 2.9 4.9998 0.9 6.8998C0.8 6.9998 0.6 7.1998 0.5 7.2998C0.4 7.3998 0.3 7.4998 0.2 7.5998C0.1 7.7998 0 7.8998 0 8.0998V8.1998V8.2998C0 8.6998 0.1 8.9998 0.2 9.3998C0.7 11.1998 1.1 12.8998 1.6 14.6998C2.2 16.9998 2.8 19.1998 3.3 21.4998C3.4 21.9998 3.6 22.5998 3.7 23.0998C3.7 23.1998 3.7 23.1998 3.8 23.2998C3.7 23.2998 3.6 23.1998 3.5 23.1998C3.2 23.1998 2.9 23.3998 2.8 23.6998C2.8 23.7998 2.7 23.8998 2.7 23.9998C2.6 24.1998 2.6 24.2998 2.5 24.3998C2.4 24.5998 2.4 24.8998 2.4 25.0998C2.5 25.2998 2.6 25.4998 2.8 25.5998C2.9 25.5998 3 25.6998 3.1 25.6998L4.8 26.4998C6.3 27.1998 7.8 27.8998 9.3 28.5998C9.4 28.5998 9.5 28.6998 9.6 28.6998C9.6 28.6998 9.7 28.6998 9.7 28.7998C9.8 28.7998 9.9 28.7998 9.9 28.7998C10 28.7998 10.2 28.7998 10.3 28.6998C10.5 28.5998 10.7 28.3998 10.9 28.0998C11 27.8998 11.1 27.6998 11 27.4998C11 27.1998 10.9 26.9998 10.9 26.6998V26.2998C10.9 25.9998 10.8 25.6998 10.8 25.4998C11.7 25.2998 15 24.6998 15.9 24.4998C16.3 25.6998 16.6 26.8998 17 28.0998C17.1 28.2998 17.1 28.5998 17.2 28.7998L17.3 28.9998C17.3 29.0998 17.3 29.1998 17.3 29.2998C17.2 29.6998 17.1 30.0998 17.1 30.3998C17.1 30.4998 17 30.6998 17 30.8998C17 31.2998 17.1 31.5998 17.4 31.6998C17.6 31.7998 17.8 31.7998 18 31.8998C18.1 31.8998 18.2 31.8998 18.2 31.9998H18.3C18.5 31.9998 18.7 31.8998 18.8 31.6998C18.9 31.5998 18.9 31.4998 18.9 31.3998C19.1 30.8998 19.4 30.3998 19.6 29.8998C20.2 28.7998 20.7 27.5998 21.2 26.4998ZM18.5 30.7998C18.5 30.8998 18.4 30.9998 18.3 31.0998C18.2 31.1998 18.2 31.1998 18.1 31.1998C18 31.1998 17.9 31.1998 17.7 31.1998C17.6 31.1998 17.5 31.0998 17.5 30.9998C17.5 30.8998 17.5 30.7998 17.5 30.7998C17.6 30.4998 17.6 30.1998 17.7 29.9998C17.8 29.6998 17.8 29.2998 17.8 28.9998C17.8 28.8998 17.8 28.7998 17.7 28.6998C17.3 27.3998 16.9 26.0998 16.5 24.7998C16.4 24.4998 16.3 24.1998 16.2 23.8998V23.7998C16.1 23.7998 16.1 23.7998 16.1 23.7998C14.8 24.0998 13.5 24.2998 12.3 24.5998C11.6 24.6998 11 24.8998 10.3 25.0998C10.2 25.0998 10 25.1998 9.9 25.1998C9.9 25.2998 9.9 25.3998 9.9 25.3998C10 26.0998 10.2 26.7998 10.3 27.4998V27.5998V27.6998C10.2 27.8998 10.1 27.9998 9.9 27.9998C9.7 27.9998 9.6 27.9998 9.4 27.8998C9 27.6998 8.6 27.4998 8.2 27.2998C6.7 26.5998 5.1 25.8998 3.6 25.0998C3.4 25.0998 3.3 24.9998 3.1 24.9998C3.1 24.9998 3 24.8998 3 24.7998C3 24.6998 3 24.4998 3 24.3998C3 24.2998 3.1 24.1998 3.1 24.0998C3.1 23.9998 3.2 23.9998 3.3 23.9998C3.4 23.9998 3.5 23.9998 3.6 23.9998C3.9 24.0998 4.2 24.1998 4.5 24.3998C4.6 24.3998 4.7 24.4998 4.8 24.4998C4.8 24.3998 4.8 24.2998 4.8 24.1998C4.5 22.8998 4.1 21.5998 3.8 20.2998C2.8 16.5998 1.9 12.9998 0.9 9.2998C0.8 8.8998 0.8 8.4998 0.8 8.0998C0.9 7.9998 0.9 7.8998 1 7.7998C1.2 7.5998 1.3 7.4998 1.4 7.2998C2.6 6.1998 3.7 5.0998 4.9 3.9998C5.8 3.0998 6.8 2.1998 7.7 1.3998C7.8 1.2998 7.9 1.1998 8 1.1998C8.1 1.1998 8.2 1.1998 8.2 1.2998C8.4 1.4998 8.5 1.5998 8.7 1.7998C8.8 1.8998 8.8 2.0998 8.7 2.2998C8.7 2.3998 8.6 2.3998 8.6 2.4998C8 3.2998 7.4 4.1998 6.8 4.9998C6.7 5.0998 6.7 5.1998 6.6 5.2998C6.5 5.3998 6.5 5.5998 6.5 5.7998C6.6 6.2998 6.7 6.7998 6.7 7.1998C6.9 8.1998 7 9.0998 7.2 9.8998C7.3 10.7998 7.5 11.5998 7.6 12.4998C7.7 13.3998 7.9 14.2998 8 15.0998C8.2 16.0998 8.3 16.9998 8.5 17.9998C8.7 18.9998 8.9 19.9998 9 20.8998C9.1 21.5998 9.2 22.2998 9.4 22.9998C9.4 23.0998 9.4 23.0998 9.4 23.1998C9.5 23.1998 9.6 23.1998 9.7 23.1998C11 22.8998 12.3 22.5998 13.6 22.1998C14.2 21.9998 14.8 21.8998 15.4 21.6998C15.5 21.6998 15.6 21.6998 15.7 21.5998C15.7 21.4998 15.7 21.4998 15.7 21.4998C15.3 20.1998 15 18.8998 14.6 17.4998C14.6 17.2998 14.5 17.1998 14.3 17.0998C14.2 17.0998 14.1 16.9998 14 16.9998C13.9 16.9998 13.8 16.8998 13.8 16.7998C13.6 16.3998 13.5 15.9998 13.4 15.5998C13.3 15.3998 13.4 15.1998 13.5 15.0998L13.6 14.9998C16 12.3998 18.4 9.6998 20.8 7.0998L20.9 6.9998C21 6.8998 21.2 6.8998 21.3 6.9998C21.5 7.0998 21.6 7.1998 21.8 7.2998C22 7.4998 22 7.6998 21.9 7.8998C21.8 7.9998 21.7 8.0998 21.7 8.1998C20.6 9.7998 19.4 11.3998 18.3 12.9998C18.2 13.1998 18.1 13.3998 17.9 13.4998C17.9 13.5998 17.8 13.5998 17.9 13.6998C18 14.1998 18.1 14.7998 18.3 15.2998C19 18.3998 19.8 21.5998 20.5 24.6998C20.5 24.7998 20.5 24.8998 20.6 24.9998C20.7 25.2998 20.7 25.5998 20.6 25.7998C20.6 25.8998 20.5 26.0998 20.5 26.1998C20.1 27.1998 19.6 28.1998 19.2 29.2998C18.9 29.7998 18.7 30.2998 18.5 30.7998Z" fill="#BF2742"/>
<path d="M42.6004 6.5C42.3004 6.2 42.1004 6 42.0004 5.9C40.6004 4.7 39.3004 3.4 37.9004 2.2L35.8004 0.3C35.8004 0.3 35.8004 0.3 35.7004 0.2C35.5004 0.1 35.4004 0 35.2004 0C35.0004 0 34.9004 0.1 34.7004 0.2C34.3004 0.6 34.0004 0.9 33.7004 1.2C33.5004 1.5 33.4004 1.8 33.6004 2.2C33.6004 2.3 33.7004 2.3 33.7004 2.4L34.3004 3C34.8004 3.7 35.3004 4.3 35.8004 5C35.9004 5.1 35.9004 5.1 35.8004 5.2C35.7004 5.6 35.7004 6 35.6004 6.3L35.5004 6.6L34.6004 11.4C34.4004 12.5 34.2004 13.7 33.9004 14.8L33.0004 19.6C32.8004 20.4 32.7004 21.2 32.5004 22.1C32.1004 22 31.6004 21.9 31.2004 21.8L30.3004 21.6C29.6004 21.5 28.9004 21.3 28.2004 21.2C27.5004 21.1 26.8004 20.9 26.2004 20.8C26.2004 20.7 26.2004 20.7 26.2004 20.6C26.1004 20.3 26.1004 20 26.0004 19.7C25.9004 18.9 25.7004 18.2 25.6004 17.4C25.4004 16.4 25.2004 15.3 25.1004 14.3C25.0004 13.5 24.8004 12.7 24.7004 11.9C24.7004 11.8 24.7004 11.8 24.7004 11.7C24.7004 11.7 24.7004 11.6 24.8004 11.6C24.8004 11.6 24.8004 11.6 24.8004 11.5C25.3004 10.2 25.9004 8.9 26.4004 7.6C26.4004 7.6 26.4004 7.6 26.4004 7.5C26.4004 7.4 26.5004 7.4 26.5004 7.3C26.6004 6.8 26.5004 6.5 26.1004 6.3C25.9004 6.2 25.8004 6.2 25.6004 6.1C25.5004 6 25.4004 6 25.2004 5.9C25.2004 6 25.1004 6 25.0004 6C24.9004 6 24.9004 6 24.8004 6C24.7004 6 24.5004 6 24.3004 6.3L24.2004 6.4L23.4004 7.5C22.0004 9.5 20.6004 11.4 19.1004 13.4C18.9004 13.6 18.9004 13.9 18.9004 14.2C19.0004 14.4 19.0004 14.7 19.1004 14.9L19.2004 15.1C19.4004 15.9 19.6004 16.8 19.8004 17.6C20.2004 19.4 20.7004 21.3 21.1004 23.1C21.2004 23.6 21.3004 24.1 21.4004 24.6C21.5004 25 21.6004 25.4 21.7004 25.8C21.7004 25.9 21.7004 26 21.7004 26.1C21.7004 26.2 21.6004 26.2 21.6004 26.3C21.6004 26.4 21.5004 26.5 21.5004 26.5C21.0004 27.4 20.5004 28.4 20.1004 29.3C20.0004 29.4 20.0004 29.6 19.9004 29.7C19.8004 30 19.6004 30.3 19.5004 30.6C19.3004 31 19.4004 31.4 19.7004 31.6C19.8004 31.7 20.0004 31.8 20.2004 31.8C20.3004 31.8 20.3004 31.8 20.4004 31.8C20.6004 31.8 20.7004 31.7 20.8004 31.6C21.1004 31.3 21.5004 31.1 21.8004 30.8L22.7004 30.2C24.1004 29.2 25.5004 28.2 26.9004 27.2C27.2004 27 27.3004 26.7 27.3004 26.3C27.3004 26 27.1004 25.3 27.1004 24.7C27.1004 24.6 27.1004 24.5 27.1004 24.4C28.4004 24.6 29.7004 24.8 31.0004 25C31.4004 25.1 31.7004 25.1 32.1004 25.2C32.1004 25.4 32.0004 25.5 32.0004 25.7C32.0004 25.9 31.9004 26.2 31.9004 26.4C31.9004 26.7 31.9004 27 32.1004 27.2C32.3004 27.4 32.5004 27.7 32.7004 27.9C32.8004 28.1 33.0004 28.2 33.2004 28.2C33.4004 28.2 33.6004 28.1 33.7004 28C34.1004 27.8 34.5004 27.6 34.9004 27.4C35.9004 27 36.9004 26.5 37.9004 26C38.5004 25.7 39.0004 25.5 39.6004 25.2L40.1004 25C40.2004 24.9 40.3004 24.9 40.5004 24.8C40.7004 24.7 40.8004 24.4 40.7004 24.2C40.7004 24.1 40.6004 24 40.5004 23.8C40.4004 23.6 40.2004 23.4 40.1004 23.2C40.0004 23 39.9004 22.9 39.7004 22.7C39.6004 22.5 39.4004 22.4 39.2004 22.4C39.2004 22.4 39.2004 22.4 39.1004 22.4C39.0004 22.4 38.9004 22.4 38.8004 22.5C38.7004 22.5 38.7004 22.6 38.6004 22.6L38.8004 21.9C39.1004 21 39.3004 20 39.6004 19.1C40.9004 14.9 41.9004 11.4 42.9004 8.2C43.0004 8.2 43.0004 7.8 43.0004 7.2C43.0004 7 42.9004 6.9 42.6004 6.5ZM42.2004 8.3C41.2004 11.6 40.2004 14.9 39.2004 18.2C38.7004 20 38.2004 21.8 37.6004 23.6C37.6004 23.7 37.5004 23.8 37.5004 23.9C37.6004 23.9 37.6004 23.9 37.6004 23.9C38.0004 23.8 38.3004 23.6 38.7004 23.5C38.8004 23.5 38.9004 23.4 39.0004 23.4C39.1004 23.4 39.3004 23.4 39.3004 23.5C39.4004 23.7 39.5004 23.8 39.6004 24C39.6004 24.1 39.7004 24.1 39.7004 24.2C39.8004 24.4 39.7004 24.5 39.6004 24.5C39.5004 24.5 39.4004 24.6 39.3004 24.6C37.4004 25.5 35.5004 26.3 33.6004 27.2C33.5004 27.3 33.3004 27.3 33.2004 27.4C33.1004 27.4 33.1004 27.4 33.0004 27.5C32.9004 27.5 32.8004 27.5 32.7004 27.4C32.6004 27.2 32.5004 27.1 32.3004 26.9C32.2004 26.8 32.2004 26.7 32.2004 26.6C32.3004 26.3 32.3004 26.1 32.4004 25.8C32.5004 25.5 32.5004 25.2 32.6004 25C32.6004 24.9 32.6004 24.9 32.6004 24.8C30.5004 24.4 28.3004 24 26.2004 23.7C26.1004 23.7 26.0004 23.7 26.0004 23.7C26.0004 23.8 26.0004 23.8 26.0004 23.9C26.1004 24.4 26.2004 25 26.3004 25.5C26.4004 25.8 26.4004 26.1 26.5004 26.4C26.5004 26.5 26.5004 26.6 26.5004 26.7C26.4004 26.8 26.3004 26.9 26.2004 26.9C25.0004 27.8 23.8004 28.6 22.6004 29.5C22.0004 29.9 21.3004 30.4 20.7004 30.8C20.6004 30.9 20.5004 30.9 20.4004 31C20.3004 31 20.2004 31.1 20.2004 31C20.1004 31 20.0004 30.9 20.0004 30.7C20.0004 30.6 20.1004 30.5 20.1004 30.4C20.4004 29.8 20.8004 29.1 21.1004 28.5C21.5004 27.8 21.9004 27 22.3004 26.3C22.4004 26.1 22.4004 25.9 22.4004 25.7C21.5004 21.9 20.6004 18 19.7004 14.2C19.7004 14.1 19.7004 14 19.6004 13.9C19.6004 13.8 19.6004 13.7 19.7004 13.6C21.3004 11.4 22.9004 9.2 24.5004 7C24.5004 6.9 24.6004 6.9 24.6004 6.8C24.7004 6.7 24.8004 6.7 24.9004 6.7C25.2004 6.7 25.4004 6.8 25.6004 7C25.7004 7 25.7004 7.2 25.7004 7.3C25.7004 7.4 25.6004 7.5 25.6004 7.6C25.3004 8.3 25.1004 8.9 24.8004 9.6C24.5004 10.2 24.3004 10.9 24.0004 11.5C24.0004 11.7 24.0004 11.9 24.0004 12.1C24.1004 12.6 24.2004 13.2 24.3004 13.7C24.5004 14.7 24.7004 15.7 24.8004 16.7C25.1004 18.2 25.4004 19.7 25.6004 21.2C25.6004 21.3 25.6004 21.3 25.6004 21.4C25.7004 21.4 25.8004 21.5 26.0004 21.5C28.3004 22 30.7004 22.5 33.0004 22.9C33.0004 22.9 33.0004 22.9 33.1004 22.9C33.1004 22.7 33.2004 22.6 33.2004 22.4C33.5004 21 33.7004 19.6 34.0004 18.2C34.3004 16.5 34.6004 14.9 35.0004 13.2C35.3004 11.5 35.7004 9.7 36.0004 8C36.2004 7 36.4004 6.1 36.6004 5.1C36.6004 4.9 36.6004 4.7 36.5004 4.5C35.9004 3.8 35.3004 3 34.8004 2.3C34.7004 2.2 34.6004 2.1 34.6004 2C34.5004 1.8 34.5004 1.6 34.6004 1.4C34.7004 1.2 34.9004 1.1 35.0004 1C35.2004 0.8 35.4004 0.8 35.6004 1C35.9004 1.3 36.3004 1.6 36.6004 1.9C38.4004 3.5 42.3004 7.2 42.3004 7.3C42.3004 7.7 42.3004 8 42.2004 8.3Z" fill="#BF2742"/>
<path d="M19.9998 25.4004C19.8998 25.0004 19.7998 24.6004 19.6998 24.2004C18.9998 21.2004 18.2998 18.3004 17.6998 15.3004C17.5998 14.8004 17.4998 14.3004 17.3998 13.8004C17.2998 13.6004 17.3998 13.4004 17.4998 13.3004C17.6998 13.0004 17.8998 12.6004 18.1998 12.3004C19.1998 10.8004 20.2998 9.30039 21.2998 7.80039C21.2998 7.70039 21.3998 7.70039 21.3998 7.60039C21.2998 7.50039 21.2998 7.50039 21.1998 7.40039C21.0998 7.50039 21.0998 7.60039 20.9998 7.60039C18.8998 9.90039 16.7998 12.3004 14.6998 14.6004C14.4998 14.8004 14.2998 15.0004 14.0998 15.2004C13.9998 15.3004 13.9998 15.5004 13.9998 15.6004V15.7004C14.0998 15.9004 14.0998 16.1004 14.1998 16.2004C14.1998 16.3004 14.2998 16.4004 14.3998 16.5004C14.4998 16.6004 14.5998 16.6004 14.6998 16.7004C14.8998 16.8004 14.9998 17.0004 15.0998 17.2004C15.3998 18.4004 15.6998 19.5004 15.9998 20.7004C16.0998 21.0004 16.0998 21.2004 16.1998 21.5004C16.1998 21.6004 16.1998 21.6004 16.1998 21.7004C16.0998 21.9004 15.9998 22.0004 15.7998 22.1004C15.5998 22.1004 15.4998 22.2004 15.2998 22.2004C13.9998 22.5004 12.6998 22.9004 11.3998 23.2004C10.7998 23.4004 10.0998 23.5004 9.3998 23.7004C9.0998 23.8004 8.8998 23.6004 8.7998 23.3004V23.2004C8.6998 22.4004 8.4998 21.7004 8.3998 20.9004C8.2998 19.9004 8.1998 19.0004 7.9998 18.0004C7.7998 17.0004 7.6998 16.1004 7.4998 15.1004C7.2998 14.2004 7.1998 13.2004 6.9998 12.3004C6.7998 11.3004 6.6998 10.4004 6.4998 9.40039C6.2998 8.40039 6.1998 7.50039 5.9998 6.50039C5.9998 6.20039 5.99981 5.90039 5.89981 5.50039C5.89981 5.30039 5.8998 5.10039 5.9998 5.00039C5.9998 5.00039 5.9998 4.90039 6.0998 4.90039C6.7998 4.10039 7.3998 3.20039 8.0998 2.40039C8.1998 2.30039 8.1998 2.30039 8.2998 2.20039C8.1998 2.10039 8.0998 1.90039 7.9998 1.90039C7.8998 1.90039 7.8998 2.00039 7.7998 2.00039C7.1998 2.60039 6.5998 3.20039 5.9998 3.70039C4.5998 5.10039 3.1998 6.50039 1.6998 7.80039C1.5998 7.90039 1.4998 8.00039 1.3998 8.20039C1.2998 8.20039 1.2998 8.30039 1.2998 8.40039C1.2998 8.60039 1.2998 8.80039 1.3998 9.00039C1.4998 9.20039 1.4998 9.50039 1.5998 9.70039C2.8998 14.7004 4.1998 19.7004 5.4998 24.6004C5.4998 24.7004 5.4998 24.7004 5.5998 24.8004C5.5998 25.0004 5.3998 25.2004 5.1998 25.2004C5.0998 25.2004 4.9998 25.1004 4.8998 25.1004C4.4998 25.0004 4.2998 24.9004 3.9998 24.8004C3.8998 24.8004 3.8998 24.8004 3.7998 24.8004H3.8998C5.1998 25.4004 6.4998 26.0004 7.7998 26.6004C8.2998 26.8004 8.8998 27.1004 9.3998 27.3004C9.4998 27.3004 9.4998 27.4004 9.5998 27.4004C9.5998 27.3004 9.5998 27.3004 9.5998 27.2004C9.5998 26.9004 9.4998 26.6004 9.4998 26.3004C9.3998 25.8004 9.2998 25.4004 9.1998 24.9004C9.1998 24.7004 9.1998 24.5004 9.3998 24.4004C9.4998 24.4004 9.5998 24.3004 9.6998 24.3004C10.5998 24.1004 11.4998 23.9004 12.2998 23.8004C13.5998 23.5004 14.7998 23.3004 16.0998 23.0004C16.1998 23.0004 16.2998 23.0004 16.3998 23.0004C16.4998 23.1004 16.4998 23.3004 16.5998 23.4004C16.8998 24.5004 17.2998 25.6004 17.5998 26.7004C17.7998 27.4004 17.9998 28.1004 18.1998 28.7004C18.1998 28.9004 18.2998 29.0004 18.1998 29.2004C18.1998 29.4004 18.0998 29.5004 18.0998 29.7004C18.1998 29.7004 18.1998 29.6004 18.1998 29.5004C18.6998 28.3004 19.2998 27.1004 19.7998 25.9004C19.7998 25.8004 19.8998 25.7004 19.8998 25.6004C20.0998 25.5004 19.9998 25.5004 19.9998 25.4004Z" fill="#BF2742"/>
<path d="M41.6004 7.29961C41.5004 7.19961 37.4004 3.49961 35.4004 1.69961L35.3004 1.59961C35.2004 1.59961 35.2004 1.69961 35.2004 1.69961C35.2004 1.69961 35.1004 1.79961 35.1004 1.89961C35.1004 1.89961 35.1004 1.99961 35.2004 1.99961C35.4004 2.19961 35.6004 2.49961 35.8004 2.69961C36.3004 3.29961 36.7004 3.89961 37.2004 4.49961C37.3004 4.59961 37.4004 4.79961 37.3004 4.99961V5.09961C37.1004 6.09961 36.9004 7.09961 36.7004 7.99961C36.4004 9.59961 36.1004 11.2996 35.8004 12.8996C35.5004 14.2996 35.3004 15.6996 35.0004 17.1996C34.7004 18.5996 34.5004 19.9996 34.2004 21.3996C34.1004 21.9996 34.0004 22.5996 33.8004 23.1996C33.8004 23.3996 33.7004 23.4996 33.5004 23.4996C33.4004 23.4996 33.2004 23.4996 33.1004 23.4996C32.7004 23.3996 32.2004 23.2996 31.8004 23.1996C30.8004 22.9996 29.9004 22.7996 28.9004 22.5996C27.9004 22.3996 26.9004 22.1996 25.9004 21.9996C25.5004 21.8996 25.4004 21.7996 25.3004 21.3996C25.1004 20.2996 24.9004 19.0996 24.7004 17.9996C24.5004 16.8996 24.3004 15.8996 24.1004 14.7996C23.9004 13.8996 23.8004 12.9996 23.6004 12.0996C23.6004 11.7996 23.6004 11.5996 23.7004 11.2996C24.1004 10.3996 24.4004 9.49961 24.8004 8.69961C25.0004 8.29961 25.3004 7.39961 25.3004 7.39961C25.2004 7.39961 25.0004 7.39961 25.0004 7.49961C24.4004 8.39961 23.7004 9.19961 23.1004 10.0996C22.2004 11.2996 21.4004 12.4996 20.5004 13.6996C20.4004 13.8996 20.4004 13.9996 20.4004 14.1996V14.2996C21.0004 16.9996 21.7004 19.7996 22.3004 22.4996C22.6004 23.5996 22.8004 24.6996 23.0004 25.7996C23.1004 26.1996 23.1004 26.1996 22.9004 26.6996C22.7004 27.1996 22.4004 27.5996 22.1004 27.9996C21.8004 28.5996 21.4004 29.1996 21.1004 29.7996C21.1004 29.7996 21.0004 29.8996 21.1004 29.9996C21.2004 29.8996 21.3004 29.8996 21.4004 29.7996C22.9004 28.6996 24.3004 27.6996 25.8004 26.5996L25.9004 26.4996C26.0004 26.3996 26.0004 26.2996 26.0004 26.1996C26.0004 26.0996 26.0004 25.9996 26.0004 25.8996C25.9004 25.0996 25.7004 24.2996 25.6004 23.3996C25.6004 23.2996 25.6004 23.2996 25.6004 23.1996C25.6004 23.0996 25.7004 22.9996 25.8004 22.9996C25.9004 22.9996 26.0004 22.9996 26.1004 22.9996C26.7004 23.0996 27.3004 23.1996 27.9004 23.2996C28.7004 23.3996 29.5004 23.5996 30.3004 23.6996C31.1004 23.7996 31.9004 23.9996 32.7004 24.0996C32.8004 24.0996 33.0004 24.0996 33.1004 24.1996C33.3004 24.1996 33.4004 24.3996 33.4004 24.5996C33.4004 24.6996 33.4004 24.6996 33.4004 24.7996C33.4004 24.8996 33.3004 25.0996 33.3004 25.1996C33.2004 25.6996 33.1004 26.0996 33.0004 26.5996C33.0004 26.6996 33.1004 26.6996 33.1004 26.7996C33.3004 26.9996 33.3004 26.9996 33.5004 26.8996C35.3004 26.0996 37.1004 25.1996 39.0004 24.3996C39.1004 24.3996 39.2004 24.2996 39.2004 24.2996C39.2004 24.1996 39.1004 24.0996 39.0004 24.0996C38.9004 24.0996 38.9004 24.0996 38.8004 24.1996C38.3004 24.3996 37.9004 24.5996 37.4004 24.7996C37.3004 24.7996 37.2004 24.8996 37.2004 24.8996C37.0004 24.8996 36.9004 24.7996 36.9004 24.5996C36.9004 24.4996 36.9004 24.3996 37.0004 24.1996C38.2004 20.0996 39.4004 15.9996 40.7004 11.8996C41.1004 10.6996 41.4004 9.49961 41.8004 8.19961C41.9004 7.99961 41.9004 7.79961 41.9004 7.59961C41.7004 7.49961 41.7004 7.39961 41.6004 7.29961Z" fill="#BF2742"/>
</svg>
