<svg width="20" height="20" viewBox="0 0 20 20" fill="none" xmlns="http://www.w3.org/2000/svg">
<path d="M13.5 20H1.2C0.6 20 0 19.4 0 18.8C0 18.2 0.6 17.6 1.2 17.6C1.7 17.6 3.5 17.4 3.5 15.3V4.7C3.5 4.2 3.6 1.9 4.8 0.7C5.2 0.3 5.8 0 6.5 0H16.9C17 0 17 0 17 0C17.7 0 18.3 0.3 18.8 0.8C20 2.1 20 4.3 20 4.8C20 5.4 19.4 6 18.8 6H16.5V15.3C16.5 15.7 16.5 18.1 15.3 19.3C14.8 19.7 14.2 20 13.5 20ZM5.5 17.5H13.6C13.8 17.3 14.1 16.3 14.1 15.2V4.7C14.1 4 14.1 3.2 14.3 2.5H6.5C6.3 2.6 6 3.8 6 4.7V15.2C6 16.2 5.8 16.9 5.5 17.5ZM16.6 3.5H17.4C17.3 3.1 17.2 2.7 17 2.5C17 2.5 17 2.5 16.9 2.5C16.8 2.5 16.7 2.9 16.6 3.5Z" fill="#01AE7E"/>
<path d="M11.8 5.5H8.2C7.8 5.5 7.5 5.2 7.5 4.8C7.5 4.4 7.8 4 8.2 4H11.7C12.1 4 12.4 4.3 12.4 4.7C12.4 5.1 12.2 5.5 11.8 5.5Z" fill="#01AE7E"/>
<path d="M12.5996 8.09961H7.39961C6.99961 8.09961 6.59961 7.79961 6.59961 7.39961C6.59961 6.99961 6.99961 6.59961 7.39961 6.59961H12.6996C13.0996 6.59961 13.3996 6.89961 13.3996 7.29961C13.3996 7.69961 12.9996 8.09961 12.5996 8.09961Z" fill="#01AE7E"/>
<path d="M12.6002 10.7008H7.4002C7.0002 10.7008 6.7002 10.4008 6.7002 10.0008C6.7002 9.60078 7.0002 9.30078 7.4002 9.30078H12.7002C13.1002 9.30078 13.4002 9.60078 13.4002 10.0008C13.4002 10.4008 13.0002 10.7008 12.6002 10.7008Z" fill="#01AE7E"/>
<path d="M12.6002 13.4H7.4002C7.0002 13.4 6.7002 13.1 6.7002 12.7C6.7002 12.3 7.0002 12 7.4002 12H12.7002C13.1002 12 13.4002 12.3 13.4002 12.7C13.4002 13.1 13.0002 13.4 12.6002 13.4Z" fill="#01AE7E"/>
<path d="M12.6002 15.9996H7.4002C7.0002 15.9996 6.7002 15.6996 6.7002 15.2996C6.7002 14.8996 7.0002 14.5996 7.4002 14.5996H12.7002C13.1002 14.5996 13.4002 14.8996 13.4002 15.2996C13.4002 15.6996 13.0002 15.9996 12.6002 15.9996Z" fill="#01AE7E"/>
</svg>
