<svg width="31" height="31" viewBox="0 0 31 31" fill="none" xmlns="http://www.w3.org/2000/svg">
<path d="M16 3.7C20 3.7 20.5 3.7 22.1 3.8C26.2 4 28.1 5.9 28.2 9.9C28.3 11.5 28.3 12 28.3 16C28.3 20 28.3 20.5 28.2 22.1C28 26.1 26.1 28.1 22.1 28.2C20.5 28.3 20 28.3 16 28.3C12 28.3 11.5 28.3 9.9 28.2C5.8 28 3.9 26.1 3.8 22.1C3.7 20.5 3.7 20 3.7 16C3.7 12 3.7 11.5 3.8 9.9C4 5.9 5.9 3.9 9.9 3.8C11.5 3.7 12 3.7 16 3.7ZM16 1C11.9 1 11.4 1 9.8 1.1C4.4 1.3 1.3 4.4 1.1 9.8C1 11.4 1 11.9 1 16C1 20.1 1 20.6 1.1 22.2C1.4 27.6 4.4 30.7 9.8 30.9C11.4 31 11.9 31 16 31C20.1 31 20.6 31 22.2 30.9C27.6 30.6 30.7 27.6 30.9 22.2C31 20.6 31 20.1 31 16C31 11.9 31 11.4 30.9 9.8C30.7 4.4 27.6 1.3 22.2 1.1C20.6 1 20.1 1 16 1ZM16 8.3C11.7 8.3 8.3 11.7 8.3 16C8.3 20.3 11.7 23.7 16 23.7C20.3 23.7 23.7 20.3 23.7 16C23.7 11.7 20.3 8.3 16 8.3ZM16 21C13.2 21 11 18.8 11 16C11 13.2 13.2 11 16 11C18.8 11 21 13.2 21 16C21 18.8 18.8 21 16 21ZM24 6.2C23 6.2 22.2 7 22.2 8C22.2 9 23 9.8 24 9.8C25 9.8 25.8 9 25.8 8C25.8 7 25 6.2 24 6.2Z" fill="#1D1D1B"/>
<path d="M15 2.7C19 2.7 19.5 2.7 21.1 2.8C25.2 3 27.1 4.9 27.2 8.9C27.3 10.5 27.3 11 27.3 15C27.3 19 27.3 19.5 27.2 21.1C27 25.1 25.1 27.1 21.1 27.2C19.5 27.3 19 27.3 15 27.3C11 27.3 10.5 27.3 8.9 27.2C4.8 27 2.9 25.1 2.8 21.1C2.7 19.5 2.7 19 2.7 15C2.7 11 2.7 10.5 2.8 8.9C3 4.9 4.9 2.9 8.9 2.8C10.5 2.7 11 2.7 15 2.7ZM15 0C10.9 0 10.4 0 8.8 0.1C3.4 0.3 0.3 3.4 0.1 8.8C0 10.4 0 10.9 0 15C0 19.1 0 19.6 0.1 21.2C0.4 26.6 3.4 29.7 8.8 29.9C10.4 30 10.9 30 15 30C19.1 30 19.6 30 21.2 29.9C26.6 29.6 29.7 26.6 29.9 21.2C30 19.6 30 19.1 30 15C30 10.9 30 10.4 29.9 8.8C29.7 3.4 26.6 0.3 21.2 0.1C19.6 0 19.1 0 15 0ZM15 7.3C10.7 7.3 7.3 10.7 7.3 15C7.3 19.3 10.7 22.7 15 22.7C19.3 22.7 22.7 19.3 22.7 15C22.7 10.7 19.3 7.3 15 7.3ZM15 20C12.2 20 10 17.8 10 15C10 12.2 12.2 10 15 10C17.8 10 20 12.2 20 15C20 17.8 17.8 20 15 20ZM23 5.2C22 5.2 21.2 6 21.2 7C21.2 8 22 8.8 23 8.8C24 8.8 24.8 8 24.8 7C24.8 6 24 5.2 23 5.2Z" fill="#BF2742"/>
</svg>
