<svg width="248" height="230" viewBox="0 0 248 230" fill="none" xmlns="http://www.w3.org/2000/svg">
<path fill-rule="evenodd" clip-rule="evenodd" d="M119.727 62.6699H129.337L125.714 64.9116H117.966L119.727 62.6699Z" fill="#B3B3B3"/>
<path d="M15.0449 93.0811H42.7185C45.2343 86.4805 46.9198 79.9048 50.7941 74.0017L48.6054 72.7563H48.7564L46.2406 71.1372H25.0829C25.4099 70.39 25.7622 69.6178 26.1395 68.8706H42.9449L40.4291 67.2516H26.9194C27.2968 66.4795 27.6993 65.7322 28.1018 64.9601H37.1335L34.6177 63.3411H28.9823L30.4415 60.8503L28.3534 59.1067C21.8831 69.5527 17.3744 81.0712 15.0449 93.106V93.0811ZM110.468 191.243C105.02 190.285 99.6907 188.757 94.5687 186.685C94.8574 186.505 95.1198 186.287 95.3486 186.037V186.037L96.3046 185.041L96.8581 184.443C101.361 186.165 106.019 187.458 110.77 188.304L110.619 188.927C110.357 189.662 110.296 190.452 110.443 191.218L110.468 191.243ZM68.6562 169.723L68.3543 169.424C66.7309 168.03 65.2014 166.532 63.7756 164.94C62.6145 163.616 61.5309 162.227 60.5302 160.781L31.473 179.885C33.0579 182.077 34.7435 184.219 36.5045 186.261C38.7184 188.752 41.0581 191.368 43.4481 193.734C54.0507 204.289 66.6406 212.683 80.5055 218.442C94.3115 224.099 109.112 226.994 124.054 226.961C138.916 226.99 153.635 224.086 167.35 218.418C181.177 212.642 193.738 204.258 204.332 193.734C206.722 191.368 209.062 188.752 211.276 186.261C213.012 184.219 214.697 182.077 216.307 179.885L187.175 160.656C185.992 162.25 184.785 163.77 183.602 165.214C182.42 166.659 181.086 168.253 179.803 169.424L179.3 169.922C178.8 169.242 178.096 168.736 177.288 168.477V168.477H176.81V168.303L177.64 167.481C178.797 166.335 180.03 164.99 181.262 163.471C182.495 161.951 184.08 159.934 185.564 157.941L186.395 156.795L187.577 157.568L219.1 178.391L220.358 179.212L219.502 180.433C217.641 183.123 215.603 185.738 213.464 188.254C211.326 190.77 208.735 193.584 206.37 195.926C195.508 206.726 182.621 215.322 168.432 221.232C154.358 227.048 139.254 230.029 124.003 230C108.673 230.037 93.4867 227.066 79.3231 221.257C65.1005 215.356 52.1854 206.75 41.3097 195.926C38.9448 193.584 36.5297 190.944 34.19 188.254C31.8503 185.564 30.039 183.123 28.1773 180.433L27.3219 179.212L28.5547 178.391L60.1528 157.468L61.4107 156.646L62.2158 157.916C63.3618 159.67 64.6401 161.335 66.0398 162.898C67.3709 164.501 68.808 166.016 70.3418 167.431V167.431L70.694 167.755L70.8952 168.427H70.4172C69.6854 168.65 69.0372 169.084 68.5555 169.673L68.6562 169.723ZM153.237 186.785C145.619 189.881 137.551 191.756 129.337 192.339L135.299 188.777C140.648 187.975 145.894 186.605 150.947 184.692L151.425 185.19L152.381 186.187C152.66 186.472 152.973 186.722 153.312 186.934L153.237 186.785ZM69.9896 58.8577C76.9712 52.3218 85.0951 47.0975 93.9649 43.4397C103.496 39.5106 113.717 37.4877 124.041 37.4877C134.365 37.4877 144.587 39.5106 154.117 43.4397C162.983 47.0917 171.099 52.3169 178.067 58.8577H173.665C167.511 53.5376 160.527 49.2394 152.985 46.1297C143.814 42.3614 133.983 40.4216 124.054 40.4216C114.124 40.4216 104.293 42.3614 95.1222 46.1297C87.5723 49.2389 80.5804 53.5371 74.4173 58.8577H69.9896ZM201.213 59.9287L216.307 49.9655C214.722 47.7736 213.037 45.6316 211.276 43.5891C209.062 41.0983 206.722 38.483 204.332 36.1168C193.749 25.5792 181.186 17.1938 167.35 11.433C139.542 0.057727 108.314 0.057727 80.5055 11.433C66.6406 17.1921 54.0507 25.5866 43.4481 36.1417C41.0581 38.5079 38.7184 41.1232 36.5045 43.614C34.7686 45.6565 33.0831 47.7986 31.473 49.9905L46.5676 59.9536L53.0332 67.7996L28.5798 51.6593L27.3471 50.8373L28.2025 49.6168C30.0641 46.9517 32.1019 44.3364 34.2152 41.8207C36.3284 39.305 38.97 36.4904 41.3348 34.1491C52.2061 23.3071 65.1215 14.6837 79.3482 8.76792C107.878 -2.92264 139.928 -2.92264 168.457 8.76792C182.647 14.6882 195.534 23.2927 206.395 34.0992C208.76 36.4406 211.15 39.0808 213.49 41.7709C215.829 44.4609 217.666 46.9019 219.527 49.567L220.383 50.7875L219.125 51.6095L194.697 67.7996L201.213 59.9785V59.9287ZM42.7185 136.819H15.0449C17.3744 148.854 21.8831 160.373 28.3534 170.819L30.4415 169.424L28.8817 166.559H34.6932L37.2089 164.915H28.1521C27.7496 164.168 27.3722 163.421 26.9949 162.649H40.5549L43.0707 161.03H26.0892L25.0326 158.738H46.1651L48.3287 157.294L50.8445 155.899C46.9702 149.996 45.2343 143.445 42.7688 136.819H42.7185ZM24.3282 157.119C24.0011 156.372 23.674 155.625 23.3721 154.853H47.0708C47.4482 155.625 47.8507 156.372 48.2532 157.119H24.3282ZM22.7181 153.234L21.8878 150.942H45.2343C45.5613 151.714 45.9135 152.486 46.2658 153.234H22.7181ZM21.3092 149.323L20.5545 147.056H43.5487C43.8506 147.829 44.1776 148.576 44.5047 149.323H21.3092ZM20.0765 145.437C19.8501 144.69 19.6236 143.918 19.4224 143.146H42.0644L42.9701 145.437H20.0765ZM18.9947 141.527L18.5419 139.584H40.6304C40.8568 140.232 41.1084 140.879 41.36 141.527H18.9947ZM205.011 136.819C203.191 143.507 200.475 149.924 196.936 155.899L199.452 157.294L201.59 158.738H222.899L221.842 161.03H204.961L207.477 162.649H221.163C220.785 163.421 220.383 164.168 219.98 164.915H210.823L213.339 166.559H219.226C218.697 167.506 218.144 168.477 217.565 169.424L220.081 170.819C226.227 160.253 230.602 148.771 233.037 136.819H205.011ZM199.477 157.119L200.735 154.853H224.534C224.207 155.625 223.905 156.372 223.578 157.119H199.477ZM201.615 153.234C202.018 152.486 202.395 151.714 202.772 150.942H226.018C225.741 151.714 225.465 152.486 225.163 153.234H201.615ZM203.552 149.323C203.879 148.576 204.232 147.829 204.533 147.056H227.352L226.597 149.323H203.552ZM205.188 145.437C205.489 144.69 205.766 143.918 206.018 143.146H228.66L227.98 145.437H205.188ZM206.546 141.527C206.747 140.904 206.923 140.257 207.1 139.584H229.54L229.012 141.527H206.546ZM48.2532 72.7812C47.8507 73.5284 47.4482 74.3005 47.0708 75.0727H23.4225C23.7244 74.3005 24.0262 73.5533 24.3533 72.7812H48.2532ZM46.2658 76.6917C45.9135 77.4389 45.5613 78.1862 45.2343 78.9583H21.9382L22.7684 76.6917H46.2658ZM44.5047 80.5773C44.1776 81.3246 43.8506 82.0967 43.5487 82.8689H20.63C20.8564 82.0967 21.108 81.3495 21.3595 80.5773H44.5047ZM42.8694 84.4878C42.5675 85.2351 42.2657 85.9823 41.9889 86.7545H19.3469C19.5482 86.0072 19.7746 85.2351 20.001 84.4878H42.8694ZM41.36 88.3735C41.1084 89.0211 40.8568 89.6687 40.6304 90.3412H18.5419C18.6928 89.6936 18.8689 89.046 19.0199 88.3735H41.36ZM196.936 74.0265C200.48 79.9989 203.196 86.4163 205.011 93.106H232.685C230.254 81.1531 225.878 69.6704 219.729 59.1067L217.213 60.8503C217.716 61.6723 218.219 62.5191 218.697 63.3411H213.263L210.747 64.9601H219.502C219.93 65.7322 220.333 66.4795 220.71 67.2516H207.326L204.81 68.8706H221.465L222.546 71.1372H201.389L199.2 72.6068L196.684 74.0017L196.936 74.0265ZM223.477 72.7812L224.458 75.0727H200.735C200.332 74.3005 199.904 73.5533 199.477 72.7812H223.477ZM225.113 76.6917C225.414 77.4389 225.691 78.2111 225.968 78.9583H202.772C202.395 78.2111 202.018 77.4389 201.615 76.6917H225.113ZM226.572 80.5773C226.823 81.3495 227.1 82.0967 227.352 82.8689H204.533C204.232 82.0967 203.879 81.3246 203.552 80.5773H226.572ZM227.855 84.4878C228.106 85.2351 228.333 86.0072 228.559 86.7545H205.917C205.666 85.9823 205.389 85.2351 205.087 84.4878H227.855ZM229.012 88.3735L229.54 90.3412H207.1C206.923 89.6687 206.747 89.0211 206.546 88.3735H229.012Z" fill="#008779"/>
<path d="M62.5171 178.191L51.5483 188.528L49.3344 186.236L54.366 181.579L53.6867 180.881L48.781 185.514L46.5419 183.198L57.5107 172.861L59.7246 175.177L55.4729 179.188L56.1522 179.91L60.429 175.875L62.6429 178.191H62.5171ZM109.839 107.652C113.613 109.072 113.26 114.377 110.921 117.192C107.826 120.903 102.82 118.512 102.845 113.779C102.845 109.919 106.241 106.307 109.839 107.652V107.652ZM101.99 110.666C101.386 111.936 100.103 116.295 101.386 117.516C101.738 117.839 103.273 118.935 103.726 119.234C104.141 119.625 104.63 119.93 105.166 120.131C105.702 120.332 106.273 120.425 106.845 120.405C109.361 120.081 110.04 118.985 112.531 122.148C112.786 122.577 113.124 122.952 113.525 123.251C113.927 123.55 114.384 123.768 114.871 123.892C115.953 124.293 117.063 124.618 118.191 124.863C119.374 125.063 120.154 124.066 121.235 123.344C122.037 122.88 122.949 122.635 123.877 122.635C124.805 122.635 125.717 122.88 126.519 123.344C127.6 124.066 128.38 125.063 129.563 124.863C130.691 124.618 131.801 124.293 132.883 123.892C133.37 123.768 133.827 123.55 134.229 123.251C134.63 122.952 134.968 122.577 135.223 122.148C137.739 118.985 138.443 120.081 140.909 120.405C141.481 120.425 142.052 120.332 142.588 120.131C143.124 119.93 143.613 119.625 144.028 119.234C144.481 118.935 146.016 117.839 146.368 117.516C147.651 116.295 146.368 111.936 145.789 110.666C143.274 105.211 139.5 106.133 136.959 105.983C133.311 105.759 133.487 101.599 137.135 101.624H137.991C138.393 101.624 138.544 101.624 138.594 101.101C138.645 100.578 138.594 100.279 138.393 100.155C131.827 97.664 115.927 97.664 109.361 100.155C109.034 100.155 109.084 100.578 109.16 101.101C109.235 101.624 109.361 101.649 109.763 101.624H110.619C114.267 101.624 114.443 105.759 110.795 105.983C108.279 106.133 104.505 105.211 101.99 110.666V110.666ZM119.449 111.538C120.801 112.013 121.911 112.993 122.541 114.269C123.171 115.545 123.272 117.014 122.82 118.362C122.705 119.035 122.456 119.679 122.088 120.257C121.721 120.834 121.241 121.334 120.678 121.727C120.114 122.121 119.478 122.4 118.805 122.55C118.132 122.699 117.436 122.715 116.757 122.597C110.745 120.928 113.235 110.143 119.449 111.438V111.538ZM124.934 118.362C124.482 117.014 124.583 115.545 125.213 114.269C125.843 112.993 126.953 112.013 128.305 111.538C134.519 110.267 137.009 121.028 130.997 122.696C130.31 122.814 129.607 122.794 128.929 122.638C128.25 122.483 127.61 122.195 127.045 121.791C126.48 121.388 126.003 120.876 125.64 120.288C125.278 119.699 125.037 119.044 124.934 118.362V118.362ZM130.468 106.731C128.363 107.721 126.152 108.473 123.877 108.972C121.601 108.477 119.389 107.725 117.286 106.731C117.888 106.2 118.297 105.488 118.447 104.704C118.597 103.92 118.481 103.108 118.116 102.397C121.942 101.923 125.812 101.923 129.638 102.397C129.273 103.108 129.157 103.92 129.307 104.704C129.457 105.488 129.866 106.2 130.468 106.731V106.731ZM136.833 117.192C134.494 114.377 134.141 109.072 137.915 107.652C141.689 106.232 144.884 109.919 144.909 113.779C144.909 118.512 139.877 120.903 136.833 117.192V117.192ZM51.5232 42.6425L55.2717 46.1545V47.1259H56.278L60.7812 51.3354V53.0789L56.5296 57.5125L45.5356 47.2256L49.7621 42.8916H51.5232V42.6425ZM52.0515 48.8695L52.5043 48.3713V47.9977L50.4665 46.0798H50.0892L49.6363 46.5531L52.1521 48.8944L52.0515 48.8695ZM57.4604 52.6306L54.7434 50.1398H54.2905L53.8377 50.6131L56.9824 53.5522L57.4353 53.0789V52.7053L57.4604 52.6306ZM61.9385 33.7255L69.8129 43.6887L69.5362 45.4073L65.687 48.3963L63.9511 48.2468L56.0767 38.2836L56.3535 36.565L60.2026 33.5761L61.9385 33.7255ZM66.3411 44.4608L60.3284 36.9885H59.951L59.6743 37.1877V37.5613L65.687 45.1582H66.0895L66.3663 44.959V44.5853L66.3411 44.4608ZM72.379 32.0069L70.7941 29.5161H70.4167L70.1148 29.7154V30.089L75.247 38.1591H75.6495L75.9262 37.9848V37.6112L73.7627 34.2984L76.4797 32.5798L79.4735 37.1379L79.0458 38.8067L74.9451 41.447L73.2092 41.1481L66.2908 30.5373L66.6933 28.8685L70.7941 26.2282L72.5299 26.5271L75.0457 30.2135L72.3538 31.9322L72.379 32.0069ZM81.7628 23.5382L83.1717 26.6019L84.8573 25.8546L85.8887 28.0714L84.178 28.8187L85.9642 32.7292L87.851 31.8823L88.8574 34.124L84.027 36.2661L77.7628 22.5917L82.593 20.4247L83.5994 22.6415L81.7125 23.4884L81.7628 23.5382ZM98.5934 15.0695L102.795 29.4663L99.8513 30.3131L97.6374 22.8408L98.8701 30.6868L96.6059 31.3344L93.4361 24.0613L95.6248 31.5336L92.6813 32.3805L88.48 17.9837L92.5555 16.8131L95.7757 24.2854L94.4927 16.3647L98.5934 15.1941V15.0695ZM112.279 12.5787L114.317 27.5235L111.122 27.9469L110.216 21.2965L109.235 21.421L110.141 28.0963L106.946 28.5198L104.908 13.575L108.103 13.1267L108.908 18.9053H109.889L109.084 13.1267L112.279 12.7033V12.5787ZM122.946 24.0114H121.739L121.537 26.9506H118.317L119.978 12.0059H124.305L126.468 26.9506H123.223L122.946 24.0114V24.0114ZM122.669 21.5206L122.217 17.2116L121.915 21.5455L122.669 21.5206ZM131.248 24.3601L132.556 14.8204L134.192 12.3296L140.305 13.1516L138.645 25.4561H139.374L138.997 28.1213L130.267 26.9506L130.644 24.2854H131.248V24.3601ZM135.424 24.9081L136.758 15.1442H136.104L135.701 15.7669L134.443 24.8583H135.424V24.9081ZM142.494 28.5696L146.72 14.1728L149.815 15.0695L146.267 27.1249L147.223 27.3989L150.72 15.4929L153.815 16.3896L150.293 28.4201L150.997 28.6194L149.991 32.0567L146.846 31.16L147.173 30.089L142.443 28.719L142.494 28.5696ZM158.897 30.7615L157.79 30.3381L156.456 33.0032L153.463 31.8574L160.658 18.5317L164.733 20.076L161.06 34.7467L158.041 33.601L158.897 30.7615ZM159.576 28.3952L160.758 24.2356L158.871 28.1213L159.576 28.3952V28.3952ZM170.67 25.6055L171.903 23.4884L178.394 27.1996L177.161 29.3168L175.375 28.2956L169.086 39.2053L166.268 37.6112L172.557 26.7015L170.771 25.7052L170.67 25.6055ZM180.734 45.8557H178.973L174.167 42.0448L183.627 30.363L186.143 32.3556L182.922 36.3159L185.212 38.1342L185.488 39.8528L180.708 45.756L180.734 45.8557ZM178.218 42.244L178.721 42.6675H179.199L181.991 39.2053V38.8316L181.463 38.4331L178.394 42.3436L178.218 42.244ZM182.897 49.0937L180.381 47.101L189.841 35.4192L192.357 37.4119L182.897 49.0937ZM199.074 43.8879L194.57 48.1721L200.08 44.9091L202.143 47.0512L191.25 57.4627L189.136 55.2957L193.64 50.9867L188.13 54.2496L186.067 52.1325L196.96 41.7209L199.074 43.8879V43.8879ZM203.929 43.8879L201.967 45.756L198.042 41.7458L200.004 39.8777L203.929 43.8879ZM123.902 43.8879L125.739 47.5743L129.839 48.1472L126.871 51.0116L127.575 55.0716L123.902 53.1536L120.531 55.3456L121.235 51.2856L118.267 48.4212L122.368 47.8483L124.179 44.1619L123.902 43.8879ZM106.543 62.1952L112.455 69.269H119.147V93.6788H128.33V69.269H135.173V62.1952H106.543ZM59.146 69.543V122.921L82.0144 105.983V74.5744H68.3034V69.5929H81.8383L87.8259 62.4692H53.2591L59.146 69.543V69.543ZM68.3034 107.328V81.6483H72.857V103.941L68.3034 107.328V107.328ZM85.9139 103.766L95.0965 99.2332V92.2341L99.65 91.1631V97.6889L108.807 95.0487V69.5181L102.921 62.4692H91.8008L85.9139 69.543V103.766V103.766ZM95.0965 84.6621V72.2082L97.3607 69.4683L99.65 72.2082V83.5413L95.0965 84.5874V84.6621ZM165.815 69.543L174.972 62.4692H194.57L188.683 69.543V122.921L179.526 116.146V69.543L174.972 73.0551V112.758L165.815 105.983V69.543ZM139.148 62.4692V69.543H146.016V96.4435L155.173 100.902V69.543H160.607L169.765 62.4692H139.148ZM115.349 144.316C119.751 138.986 122.191 136.969 126.594 131.663C126.997 131.165 127.047 130.916 126.393 130.518L124.556 129.372C124.003 129.023 123.802 129.073 123.349 129.372C115.323 136.097 109.462 141.153 101.185 148.127C101.079 148.206 100.99 148.304 100.923 148.417C100.855 148.529 100.811 148.654 100.792 148.784C100.774 148.913 100.781 149.045 100.814 149.172C100.846 149.298 100.904 149.418 100.983 149.522C101.461 150.519 101.939 151.49 102.443 152.486C102.535 152.675 102.665 152.842 102.825 152.98C102.985 153.117 103.172 153.22 103.373 153.283L104.128 153.582C104.455 153.707 104.48 153.757 104.581 154.08L108.682 166.31L91.5995 170.046L81.5364 122.497L89.4611 113.755C89.7882 113.381 89.6624 113.157 89.3102 112.858C88.958 112.559 87.9517 111.637 87.2724 111.064C87.1438 110.952 86.9783 110.891 86.807 110.891C86.6356 110.891 86.4702 110.952 86.3416 111.064L64.1524 128.749C62.6681 129.92 62.819 130.219 63.297 131.738C67.5738 145.213 72.4041 160.457 76.7061 173.907L71.9261 172.413C71.5739 172.288 71.3978 172.413 71.2217 172.637L70.2657 174.131C70.2221 174.189 70.1931 174.255 70.181 174.326C70.169 174.397 70.1742 174.47 70.1964 174.538C70.2186 174.606 70.2571 174.668 70.3085 174.719C70.36 174.77 70.423 174.807 70.4922 174.829L92.1782 183.223C92.2954 183.28 92.4288 183.297 92.5567 183.27C92.6847 183.242 92.7995 183.173 92.8826 183.073L93.8637 182.102C94.0902 181.878 94.0147 181.753 93.8637 181.454L92.4801 174.953L110.367 171.79L115.172 186.062C114.77 187.407 114.393 188.777 114.015 190.122C114.015 190.471 113.864 190.745 114.292 190.894L115.701 191.367C116.204 191.542 116.405 191.367 116.632 191.044L123.776 177.842C123.969 177.518 124.085 177.154 124.116 176.779C124.146 176.404 124.09 176.026 123.952 175.676L115.198 144.316H115.349ZM136.028 127.678L121.562 144.142C121.376 144.318 121.251 144.548 121.205 144.799C121.16 145.05 121.197 145.308 121.311 145.537L130.217 177.743L122.342 190.022C122.166 190.296 122.066 190.396 122.342 190.62L122.896 191.044C123.011 191.143 123.158 191.199 123.311 191.199C123.464 191.199 123.611 191.143 123.726 191.044L142.72 179.636C143.576 179.138 143.601 178.963 143.399 178.067L142.217 172.637L155.224 174.953L153.84 181.454C153.84 181.753 153.84 181.878 153.84 182.102L154.821 183.073C154.904 183.173 155.019 183.242 155.147 183.27C155.275 183.297 155.408 183.28 155.526 183.223L177.212 174.829C177.281 174.807 177.344 174.77 177.395 174.719C177.447 174.668 177.485 174.606 177.507 174.538C177.529 174.47 177.535 174.397 177.523 174.326C177.511 174.255 177.482 174.189 177.438 174.131L176.482 172.637C176.306 172.338 176.13 172.288 175.778 172.413L171.073 173.932C175.375 160.482 180.205 145.238 184.482 131.763C184.96 130.244 185.111 129.945 183.627 128.774L161.438 111.089C161.309 110.977 161.143 110.915 160.972 110.915C160.801 110.915 160.635 110.977 160.507 111.089L158.444 112.883C158.117 113.182 157.991 113.406 158.444 113.779L166.318 122.597L156.255 170.146L140.934 166.783L134.972 139.385C136.909 135.524 137.487 133.208 139.45 129.422C139.752 128.824 139.726 128.625 139.022 128.326C138.318 128.027 137.689 127.703 137.009 127.454C136.33 127.205 136.305 127.454 136.003 127.827L136.028 127.678ZM198.772 114.95C198.808 120.457 198.098 125.945 196.658 131.265H247.829L236.961 114.95L247.829 98.6355H196.608C197.981 103.968 198.691 109.447 198.721 114.95H198.772ZM210.546 111.289V122.597H206.646V111.089L203.552 113.954L201.036 111.04L203.678 108.549C204.127 108.175 204.626 107.865 205.162 107.627C205.683 107.426 206.238 107.324 206.797 107.328C207.319 107.332 207.836 107.416 208.332 107.577C208.791 107.741 209.209 108.002 209.557 108.342C209.904 108.682 210.173 109.092 210.344 109.545C210.548 110.086 210.642 110.662 210.621 111.239L210.546 111.289ZM218.345 122.497C217.586 122.497 216.832 122.387 216.105 122.173C215.443 121.964 214.822 121.644 214.269 121.227C213.774 120.836 213.37 120.343 213.087 119.782C212.822 119.265 212.67 118.698 212.639 118.119C212.609 117.54 212.701 116.961 212.91 116.42C213.074 115.954 213.312 115.517 213.615 115.124C213.464 114.875 213.338 114.601 213.212 114.352C213.087 114.103 212.986 113.804 212.885 113.53C212.785 113.256 212.734 112.982 212.684 112.708C212.66 112.443 212.66 112.177 212.684 111.911C212.682 111.281 212.828 110.658 213.112 110.093C213.406 109.553 213.798 109.072 214.269 108.673C214.761 108.288 215.313 107.985 215.904 107.777C216.526 107.556 217.181 107.447 217.841 107.453H229.942C230.572 107.441 231.198 107.559 231.779 107.802C232.352 108.017 232.875 108.348 233.313 108.773C233.769 109.172 234.132 109.663 234.38 110.213C234.627 110.763 234.753 111.359 234.747 111.961C234.775 112.268 234.775 112.576 234.747 112.883C234.698 113.153 234.631 113.419 234.546 113.68C234.546 113.904 234.345 114.128 234.219 114.352C234.093 114.576 233.967 114.751 233.842 114.95C234.48 115.771 234.825 116.779 234.823 117.815C234.83 118.51 234.684 119.198 234.395 119.832C234.108 120.412 233.696 120.922 233.188 121.327C232.668 121.752 232.07 122.074 231.427 122.273C230.717 122.487 229.98 122.596 229.238 122.597L218.345 122.497ZM230.596 111.04H216.734V112.858H230.596V111.04ZM230.596 116.918H216.684V118.512H230.596V116.918ZM51.171 131.265C49.8714 125.925 49.2795 120.441 49.4099 114.95C49.2981 109.46 49.8898 103.978 51.171 98.6355H0L10.8682 114.95L0 131.265H51.171ZM19.5476 107.278V122.597H15.2456V107.254L19.5476 107.278ZM39.5229 107.278C40.2716 107.271 41.0174 107.372 41.7368 107.577C42.3742 107.743 42.9725 108.031 43.4978 108.424C43.9898 108.816 44.3783 109.32 44.6299 109.894C44.9262 110.543 45.0723 111.249 45.0576 111.961C45.0489 112.972 44.7429 113.959 44.1771 114.801L44.6048 115.398C44.7489 115.595 44.8752 115.803 44.9821 116.021C45.1083 116.242 45.2095 116.476 45.284 116.719C45.3239 116.991 45.3239 117.268 45.284 117.541C45.2929 117.989 45.2248 118.435 45.0828 118.861C44.966 119.287 44.779 119.691 44.5293 120.056C44.3026 120.426 44.023 120.762 43.6991 121.053C43.3747 121.345 43.0206 121.604 42.6425 121.825C42.2523 122.037 41.8386 122.204 41.4097 122.323C40.982 122.431 40.543 122.49 40.1015 122.497H23.1452V107.278H39.5229ZM40.9569 118.562V116.793H27.2208V118.562H40.9569ZM40.9569 112.858V111.164H27.2208V112.858H40.9569ZM68.4292 186.261L66.3159 188.927L67.8003 190.047L66.2656 191.965L64.8065 190.844L62.1398 194.207L63.7499 195.452L62.2152 197.37L58.0642 194.132L67.3977 182.376L71.5739 185.614L70.0393 187.532L68.4292 186.261V186.261ZM82.7691 193.858L80.2534 198.167L79.1967 198.516L79.4483 199.512L76.4042 204.793L74.6683 205.166L70.467 202.676L69.9387 201.032L72.2532 197.071L75.0457 198.665L73.5111 201.331L73.6872 201.704L73.9891 201.879H74.3665L76.2785 198.591L76.1275 198.217L74.769 197.445L76.0017 195.328L77.3602 196.1H77.7376L79.2219 193.609L79.071 193.26L78.7691 193.086H78.3665L77.3854 194.805L74.5677 193.211L76.3036 190.222L78.0143 189.798L82.2408 192.289L82.7691 193.983V193.858ZM88.9077 208.23L87.8007 207.807L86.4673 210.472L83.4736 209.301L90.7945 196.025L94.8449 197.619L91.0712 212.24L88.0523 211.07L88.9077 208.23V208.23ZM89.6121 205.889L90.8448 201.754L88.9077 205.615L89.6121 205.889ZM108.908 202.277L108.002 207.259L107.197 207.807L107.751 208.629L106.669 214.656L105.185 215.603L99.1217 214.532L101.788 199.761L107.851 200.832L108.908 202.227V202.277ZM103.877 206.113L104.531 206.237L104.858 206.063L105.361 203.323L105.134 202.9H104.455L103.877 206.213V206.113ZM103.675 212.689L104.329 209.027L104.103 208.629H103.424L102.669 212.838L103.323 212.963L103.675 212.788V212.689ZM118.342 202.202L118.191 208.404L119.801 202.252H122.795L122.393 217.197H119.374L119.525 211.02L118.015 217.247H115.047L115.424 202.302H118.443L118.342 202.202ZM134.116 207.284L133.739 204.444L133.412 204.245H133.06L132.783 204.519L133.99 214.083L134.343 214.283H134.695L134.972 214.009L134.468 210.098L137.663 209.7L138.368 215.08L137.236 216.425L132.38 217.023L130.971 216.026L129.361 203.572L130.594 202.302L135.424 201.704L136.858 202.701L137.412 207.035L134.217 207.433L134.116 207.284ZM145.689 199.811L147.4 205.764L147.072 199.413L149.94 198.591L154.091 213.012L151.173 213.834L149.462 207.881L149.764 214.233L146.922 215.03L142.77 200.608L145.689 199.811ZM165.639 192.339L171.878 205.988L169.086 207.234L165.815 199.936L168.18 207.533L166.016 208.504L161.815 201.754L165.085 208.903L162.293 210.173L156.054 196.499L159.953 194.755L164.18 201.605L161.664 193.958L165.815 192.339H165.639ZM184.759 196.499L184.407 198.192L179.375 201.729L170.595 189.524L173.237 187.656L176.23 191.791L178.595 190.122L180.356 190.321L184.759 196.499V196.499ZM180.583 197.868L181.136 197.495V197.022L178.62 193.41H178.394L177.84 193.808L180.784 197.893L180.583 197.868ZM188.533 195.378L186.017 197.246L177.262 185.041L179.778 183.198L188.558 195.378H188.533ZM186.344 177.195L190.872 181.454L187.325 176.149L189.388 174.007L200.357 184.368L198.269 186.535L193.74 182.251L197.237 187.581L195.199 189.699L184.256 179.362L186.344 177.195V177.195ZM186.193 172.388L188.155 174.256L184.256 178.291L182.293 176.423L186.193 172.388Z" fill="white"/>
<path d="M181.237 130.541C176.423 145.187 171.635 159.841 166.872 174.504L158.092 177.916C161.74 175.101 162.821 174.529 164.079 171.017L177.765 132.957C178.922 129.719 177.765 128.723 174.973 124.912C174.973 124.912 180.709 130.143 181.237 130.541ZM117.21 183.172L121.135 176.546L112.204 146.433L117.235 175.575C117.679 178.046 117.679 180.576 117.235 183.047L117.21 183.172ZM66.0645 130.541L80.4296 174.504L89.2096 177.916C85.5618 175.101 84.48 174.529 83.2221 171.017C78.6433 158.347 74.073 145.66 69.5111 132.957C68.3538 129.719 69.5111 128.723 72.3287 124.912C72.3287 124.912 66.5928 130.143 66.0645 130.541ZM132.305 182.001L139.676 177.617L131.726 142.896L135.852 175.052C136.053 175.654 136.085 176.3 135.943 176.919C135.801 177.537 135.491 178.106 135.047 178.564L132.305 182.001V182.001Z" fill="#008779"/>
</svg>
