<svg width="20" height="20" viewBox="0 0 20 20" fill="none" xmlns="http://www.w3.org/2000/svg">
<path d="M14.3004 17.4004H5.70039C5.00039 17.4004 4.40039 18.0004 4.40039 18.7004C4.40039 19.4004 5.00039 20.0004 5.70039 20.0004H14.3004C15.0004 20.0004 15.6004 19.4004 15.6004 18.7004C15.6004 18.0004 15.0004 17.4004 14.3004 17.4004Z" fill="#01AE7E"/>
<path d="M16.8 1.8C16.8 1.6 16.8 1.5 16.8 1.3C16.8 0.6 16.2 0 15.5 0H4.5C4.1 0 3.8 0.2 3.5 0.4C3.3 0.7 3.1 1 3.2 1.4C3.2 1.5 3.2 1.6 3.2 1.7C1.3 1.8 0 2.1 0 3.8C0 9.9 4.6 11.5 6.9 11.9C7.4 12.5 8 13 8.7 13.3C8 13.6 7 13.7 6.9 13.7C6.2 13.7 5.6 14.3 5.6 15C5.6 15.7 6.2 16.3 6.9 16.3H13.1C13.8 16.3 14.4 15.7 14.4 15C14.4 14.3 13.8 13.7 13.1 13.7C12.8 13.7 12.2 13.6 12 13C12.3 12.7 12.6 12.4 13 11.9C15.3 11.5 20 10 20 3.8C20 2.1 18.7 1.8 16.8 1.8ZM14.2 2.6C13.8 7.5 11.2 10.3 10.2 11.2C8 10.6 6.5 5.9 5.9 2.6H14.2ZM1.5 3.8C1.5 3.5 1.9 3.4 3.5 3.3C3.8 5.1 4.5 7.8 5.6 10C3.7 9.3 1.5 7.7 1.5 3.8ZM14.4 10C15.4 8.4 16.4 6.1 16.7 3.3C18.1 3.3 18.5 3.4 18.5 3.8C18.5 7.7 16.3 9.3 14.4 10Z" fill="#01AE7E"/>
<path d="M11.5 8.2L11.6 6.6L12.5 5.3L11 4.7L10 3.5L9 4.7L7.5 5.3L8.4 6.6L8.5 8.2L10 7.8L11.5 8.2Z" fill="#01AE7E"/>
</svg>
