<svg width="22" height="21" viewBox="0 0 22 21" fill="none" xmlns="http://www.w3.org/2000/svg">
<path d="M21.3 5.69922L11.6 1.09922C11.2 0.899219 10.8 0.899219 10.5 1.09922L0.7 5.79922C0.3 5.99922 0 6.49922 0 6.99922C0 7.49922 0.3 7.89922 0.7 8.09922L4.9 10.0992V16.3992C4.9 17.9992 6.2 20.9992 11.1 20.9992C15.8 20.9992 17.3 17.9992 17.4 16.3992V16.2992L17.2 9.99922L18.1 9.59922V13.4992C18.1 14.1992 18.7 14.7992 19.4 14.7992C20.1 14.7992 20.7 14.1992 20.7 13.4992V8.29922L21.3 7.99922C21.7 7.79922 22 7.39922 22 6.89922C22 6.39922 21.7 5.99922 21.3 5.69922ZM14.8 16.2992C14.7 16.6992 14.3 18.4992 11 18.4992C7.6 18.4992 7.4 16.7992 7.4 16.4992V11.3992L10.5 12.8992C10.7 12.9992 10.9 12.9992 11.1 12.9992C11.3 12.9992 11.5 12.9992 11.7 12.8992L14.8 11.3992V16.2992ZM11.1 10.1992L4.2 6.99922L11 3.69922L17.7 6.89922L11.1 10.1992Z" fill="#01AE7E"/>
</svg>
