<svg width="17" height="20" viewBox="0 0 17 20" fill="none" xmlns="http://www.w3.org/2000/svg">
<path d="M13.5 20H3.7C0.9 20 0 17.4 0 16V3.2C0.1 1.9 1.1 0 3.8 0H13.4C14.9 0 15.7 0.6 16.2 1C17 1.9 17 2.9 17 3.2V16.1C17 16.2 17 17.9 15.9 19.1C15.3 19.7 14.4 20 13.5 20ZM3.8 2.5C3 2.5 2.6 2.7 2.6 3.3V16C2.6 16.1 2.7 17.5 3.7 17.5H13.4C13.8 17.5 13.9 17.4 14 17.3C14.3 17 14.4 16.4 14.4 16.1V3.1C14.4 2.7 14 2.5 13.3 2.5H3.8V2.5Z" fill="#01AE7E"/>
<path d="M11.0004 4.80039H6.20039C5.80039 4.80039 5.40039 4.50039 5.40039 4.10039C5.40039 3.70039 5.70039 3.40039 6.20039 3.40039H11.0004C11.4004 3.40039 11.8004 3.70039 11.8004 4.10039C11.7004 4.50039 11.4004 4.80039 11.0004 4.80039Z" fill="#01AE7E"/>
<path d="M12.1996 7.5H4.89961C4.49961 7.5 4.09961 7.2 4.09961 6.8C4.09961 6.4 4.49961 6 4.89961 6H12.1996C12.5996 6 12.9996 6.4 12.9996 6.8C12.9996 7.2 12.5996 7.5 12.1996 7.5Z" fill="#01AE7E"/>
<path d="M12.1996 10.3004H4.89961C4.49961 10.3004 4.09961 10.0004 4.09961 9.60039C4.09961 9.20039 4.39961 8.90039 4.89961 8.90039H12.1996C12.5996 8.90039 12.9996 9.20039 12.9996 9.60039C12.9996 10.0004 12.5996 10.3004 12.1996 10.3004Z" fill="#01AE7E"/>
<path d="M12.1996 12.9996H4.89961C4.49961 12.9996 4.09961 12.6996 4.09961 12.2996C4.09961 11.8996 4.39961 11.5996 4.89961 11.5996H12.1996C12.5996 11.5996 12.9996 11.8996 12.9996 12.2996C12.9996 12.6996 12.5996 12.9996 12.1996 12.9996Z" fill="#01AE7E"/>
<path d="M12.1996 15.8004H4.89961C4.49961 15.8004 4.09961 15.5004 4.09961 15.1004C4.09961 14.7004 4.39961 14.4004 4.89961 14.4004H12.1996C12.5996 14.4004 12.9996 14.7004 12.9996 15.1004C12.9996 15.5004 12.5996 15.8004 12.1996 15.8004Z" fill="#01AE7E"/>
</svg>
