<svg width="30" height="30" viewBox="0 0 30 30" fill="none" xmlns="http://www.w3.org/2000/svg">
<path d="M15.3 1C7.4 1 1 7.4 1 15.2C1 23.1 7.4 29.5 15.3 29.5C23.2 29.5 29.6 23.1 29.6 15.2C29.5 7.4 23.1 1 15.3 1ZM21.4 11.1C21.1 12.7 20.4 17.7 19.8 20.9C19.5 22.8 18.6 23 17.4 22.2C16.8 21.8 13.8 19.8 13.2 19.3C12.6 18.9 11.8 18.6 12.8 17.4C13.8 16.3 16.6 12.6 16.8 12.3C17 12 16.7 11.7 16.5 11.9C14 13.5 11.1 16.5 10.7 16.9C10 17.4 9.4 17.6 8.2 17.2C7.3 16.9 6.5 16.7 6.1 16.5C4.8 16.1 5.1 15.5 6.4 14.9C11.4 12.7 17.8 10 18.7 9.7C21.1 8.8 21.8 9 21.4 11.1Z" fill="#1D1D1B"/>
<path d="M14.3 0C6.4 0 0 6.4 0 14.2C0 22.1 6.4 28.5 14.3 28.5C22.2 28.5 28.6 22.1 28.6 14.2C28.5 6.4 22.1 0 14.3 0ZM20.4 10.1C20.1 11.7 19.4 16.7 18.8 19.9C18.5 21.8 17.6 22 16.4 21.2C15.8 20.8 12.8 18.8 12.2 18.3C11.6 17.9 10.8 17.3 11.8 16.4C12.1 16.1 14.5 13.7 16.5 11.9C16.8 11.7 16.4 11.3 16.2 11.5C13.7 13.1 10.2 15.5 9.8 15.8C9.1 16.3 8.5 16.5 7.3 16.1C6.4 15.8 5.6 15.6 5.2 15.4C3.9 15 4.2 14.4 5.5 13.8C10.5 11.6 16.9 8.9 17.8 8.6C20.1 7.8 20.8 8 20.4 10.1Z" fill="#BF2742"/>
</svg>
