<svg width="44" height="23" viewBox="0 0 44 23" fill="none" xmlns="http://www.w3.org/2000/svg">
<path d="M43.5 20.1998C43.4 20.0998 43.4 19.9998 43.4 19.9998C42.7 18.7998 41.2 17.3998 39.1 15.7998C38.2 14.9998 37.5 14.4998 37.3 14.1998C36.8 13.6998 36.7 13.1998 37 12.5998C37.2 12.1998 37.8 11.3998 39 10.0998C39.6 9.3998 40.1 8.8998 40.4 8.4998C43 5.5998 44.1 3.6998 43.7 2.8998L43.6 2.6998C43.5 2.5998 43.3 2.4998 42.9 2.3998C42.5 2.2998 42.1 2.2998 41.5 2.3998H35.1C35 2.3998 34.8 2.3998 34.7 2.3998C34.5 2.3998 34.4 2.4998 34.4 2.4998H34.3L34.2 2.5998C34.1 2.5998 34 2.6998 34 2.7998C33.9 2.8998 33.8 2.9998 33.8 3.0998C33.1 4.5998 32.3 6.09981 31.4 7.39981C30.9 8.19981 30.3 8.8998 29.9 9.4998C29.4 10.0998 29.1 10.4998 28.7 10.7998C28.4 11.0998 28.1 11.2998 27.9 11.4998C27.6 11.6998 27.5 11.6998 27.3 11.6998C27.2 11.6998 27 11.5998 26.9 11.5998C26.7 11.4998 26.5 11.2998 26.4 11.0998C26.3 10.8998 26.2 10.6998 26.1 10.3998C26.1 10.0998 26 9.7998 26 9.5998C26 9.3998 26 9.0998 26 8.6998C26 8.2998 26 7.99981 26 7.89981C26 7.39981 26 6.8998 26 6.2998C26 5.6998 26 5.2998 26.1 4.8998C26.1 4.5998 26.1 4.1998 26.1 3.7998C26.1 3.3998 26.1 3.0998 26 2.8998C25.9 2.6998 25.9 2.4998 25.8 2.2998C25.7 2.0998 25.5 1.8998 25.3 1.7998C25.1 1.6998 24.9 1.5998 24.6 1.4998C23.8 1.2998 22.8 1.2998 21.6 1.2998C18.8 1.2998 17.1 1.3998 16.3 1.7998C16 1.8998 15.7 2.0998 15.5 2.3998C15.2 2.6998 15.2 2.7998 15.4 2.8998C16.3 2.9998 16.9 3.2998 17.3 3.6998L17.4 3.8998C17.5 4.0998 17.6 4.3998 17.7 4.7998C17.8 5.1998 17.9 5.6998 17.9 6.1998C18 7.0998 18 7.8998 17.9 8.5998C17.8 9.2998 17.8 9.7998 17.7 10.1998C17.6 10.5998 17.5 10.8998 17.4 11.0998C17.3 11.2998 17.2 11.4998 17.1 11.4998C17.1 11.5998 17 11.5998 17 11.5998C16.8 11.6998 16.6 11.6998 16.4 11.6998C16.2 11.6998 15.9 11.5998 15.6 11.3998C15.3 11.1998 15 10.9998 14.7 10.6998C14.4 10.3998 14 9.8998 13.6 9.3998C13.2 8.7998 12.8 8.19981 12.4 7.39981L12 6.6998C11.8 6.2998 11.5 5.7998 11.1 5.0998C10.7 4.3998 10.4 3.7998 10.1 3.0998C9.9 2.8998 9.7 2.6998 9.5 2.4998H9.4C9.3 2.3998 9.2 2.3998 9 2.2998C8.9 2.1998 8.7 2.1998 8.5 2.1998H2.4C1.8 2.1998 1.4 2.2998 1.1 2.5998V2.6998C1 2.7998 1 2.8998 1 2.9998C1 3.0998 1 3.2998 1.1 3.4998C2 5.2998 3 7.0998 4 8.6998C5 10.3998 6 11.6998 6.7 12.6998C7.5 13.6998 8.3 14.6998 9.1 15.5998C9.9 16.4998 10.4 17.0998 10.7 17.2998C11 17.5998 11.2 17.6998 11.3 17.8998L11.9 18.3998C12.3 18.6998 12.8 19.0998 13.5 19.4998C14.2 19.8998 15 20.2998 15.8 20.7998C16.6 21.1998 17.6 21.5998 18.7 21.7998C19.8 22.0998 20.9 22.1998 21.9 22.0998H24.5C25 22.0998 25.4 21.8998 25.7 21.6998L25.8 21.5998C25.9 21.4998 25.9 21.3998 26 21.1998C26.1 20.9998 26.1 20.8998 26.1 20.6998C26.1 20.1998 26.1 19.6998 26.2 19.1998C26.3 18.7998 26.4 18.3998 26.6 18.1998C26.7 17.9998 26.9 17.7998 27.1 17.5998C27.3 17.3998 27.4 17.3998 27.5 17.2998C27.6 17.2998 27.6 17.1998 27.7 17.1998C28.1 17.0998 28.5 17.1998 29 17.4998C29.5 17.7998 29.9 18.1998 30.4 18.5998C30.8 18.9998 31.3 19.4998 31.9 20.0998C32.5 20.5998 33 21.0998 33.5 21.2998L33.9 21.4998C34.2 21.6998 34.6 21.7998 35.1 21.8998C35.6 21.9998 36 22.0998 36.3 21.9998L42 21.8998C42.6 21.8998 43 21.7998 43.3 21.6998C43.6 21.4998 43.8 21.3998 43.9 21.1998C44 20.9998 44 20.7998 43.9 20.4998C43.6 20.4998 43.6 20.2998 43.5 20.1998Z" fill="#1D1D1B"/>
<path d="M42.5 19.1998C42.4 19.0998 42.4 18.9998 42.4 18.9998C41.7 17.7998 40.2 16.3998 38.1 14.7998C37.2 13.9998 36.5 13.4998 36.3 13.1998C35.8 12.6998 35.7 12.1998 36 11.5998C36.2 11.1998 36.8 10.3998 38 9.0998C38.6 8.3998 39.1 7.8998 39.4 7.4998C42 4.5998 43.1 2.6998 42.7 1.8998L42.6 1.6998C42.5 1.5998 42.3 1.4998 41.9 1.3998C41.5 1.2998 41.1 1.2998 40.5 1.3998H34.1C34 1.3998 33.8 1.3998 33.7 1.3998C33.5 1.3998 33.4 1.4998 33.4 1.4998H33.3L33.2 1.5998C33.1 1.5998 33 1.6998 33 1.7998C32.9 1.8998 32.8 1.9998 32.8 2.0998C32.1 3.5998 31.3 5.0998 30.4 6.3998C29.9 7.1998 29.3 7.8998 28.9 8.4998C28.4 9.0998 28.1 9.4998 27.7 9.7998C27.4 10.0998 27.1 10.2998 26.9 10.4998C26.6 10.6998 26.5 10.6998 26.3 10.6998C26.2 10.6998 26 10.5998 25.9 10.5998C25.7 10.4998 25.5 10.2998 25.4 10.0998C25.3 9.8998 25.2 9.6998 25.1 9.3998C25.1 9.0998 25 8.7998 25 8.5998C25 8.3998 25 8.0998 25 7.6998C25 7.2998 25 6.9998 25 6.8998C25 6.3998 25 5.8998 25 5.2998C25 4.6998 25 4.2998 25.1 3.8998C25.1 3.5998 25.1 3.1998 25.1 2.7998C25.1 2.3998 25.1 2.0998 25 1.8998C24.9 1.6998 24.9 1.4998 24.8 1.2998C24.7 1.0998 24.5 0.899805 24.3 0.799805C24.1 0.699805 23.9 0.599805 23.6 0.499805C22.8 0.299805 21.8 0.299805 20.6 0.299805C17.8 0.299805 16.1 0.399805 15.3 0.799805C15 0.899805 14.7 1.0998 14.5 1.3998C14.2 1.6998 14.2 1.7998 14.4 1.8998C15.3 1.9998 15.9 2.2998 16.3 2.6998L16.4 2.8998C16.5 3.0998 16.6 3.3998 16.7 3.7998C16.8 4.1998 16.9 4.6998 16.9 5.1998C17 6.0998 17 6.8998 16.9 7.5998C16.8 8.2998 16.8 8.7998 16.7 9.1998C16.6 9.5998 16.5 9.8998 16.4 10.0998C16.3 10.2998 16.2 10.4998 16.1 10.4998C16.1 10.5998 16 10.5998 16 10.5998C15.8 10.6998 15.6 10.6998 15.4 10.6998C15.2 10.6998 14.9 10.5998 14.6 10.3998C14.3 10.1998 14 9.9998 13.7 9.6998C13.4 9.3998 13 8.8998 12.6 8.3998C12.2 7.7998 11.8 7.1998 11.4 6.3998L11 5.6998C10.8 5.2998 10.5 4.7998 10.1 4.0998C9.7 3.3998 9.4 2.7998 9.1 2.0998C8.9 1.8998 8.7 1.6998 8.5 1.4998H8.4C8.3 1.3998 8.2 1.3998 8 1.2998C7.9 1.1998 7.7 1.1998 7.5 1.1998H1.4C0.8 1.1998 0.4 1.2998 0.1 1.5998V1.6998C0 1.7998 0 1.8998 0 1.9998C0 2.0998 0 2.2998 0.1 2.4998C1 4.2998 2 6.0998 3 7.6998C4 9.3998 5 10.6998 5.7 11.6998C6.5 12.6998 7.3 13.6998 8.1 14.5998C8.9 15.4998 9.4 16.0998 9.7 16.2998C10 16.5998 10.2 16.6998 10.3 16.8998L10.9 17.3998C11.3 17.6998 11.8 18.0998 12.5 18.4998C13.2 18.8998 14 19.2998 14.8 19.7998C15.6 20.1998 16.6 20.5998 17.7 20.7998C18.8 21.0998 19.9 21.1998 20.9 21.0998H23.5C24 21.0998 24.4 20.8998 24.7 20.6998L24.8 20.5998C24.9 20.4998 24.9 20.3998 25 20.1998C25.1 19.9998 25.1 19.8998 25.1 19.6998C25.1 19.1998 25.1 18.6998 25.2 18.1998C25.3 17.7998 25.4 17.3998 25.6 17.1998C25.7 16.9998 25.9 16.7998 26.1 16.5998C26.3 16.3998 26.4 16.3998 26.5 16.2998C26.6 16.2998 26.6 16.1998 26.7 16.1998C27.1 16.0998 27.5 16.1998 28 16.4998C28.5 16.7998 28.9 17.1998 29.4 17.5998C29.8 17.9998 30.3 18.4998 30.9 19.0998C31.5 19.5998 32 20.0998 32.5 20.2998L32.9 20.4998C33.2 20.6998 33.6 20.7998 34.1 20.8998C34.6 20.9998 35 21.0998 35.3 20.9998L41 20.8998C41.6 20.8998 42 20.7998 42.3 20.6998C42.6 20.4998 42.8 20.3998 42.9 20.1998C43 19.9998 43 19.7998 42.9 19.4998C42.6 19.4998 42.6 19.2998 42.5 19.1998Z" fill="#BF2742"/>
</svg>
