<svg width="44" height="30" viewBox="0 0 44 30" fill="none" xmlns="http://www.w3.org/2000/svg">
<path d="M22.4 1.40039C22.4 1.40039 9 1.40039 5.6 2.20039C3.9 2.70039 2.4 4.20039 1.9 5.90039C1 9.10039 1 15.7004 1 15.7004C1 15.7004 1 22.4004 1.9 25.5004C2.4 27.2004 3.9 28.6004 5.7 29.1004C9 30.0004 22.4 30.0004 22.4 30.0004C22.4 30.0004 35.8 30.0004 39.2 29.2004C41 28.7004 42.5 27.4004 43 25.6004C43.9 22.4004 43.9 15.8004 43.9 15.8004C43.9 15.8004 43.9 9.10039 43 5.90039C42.5 4.20039 41.1 2.80039 39.2 2.30039C35.8 1.40039 22.4 1.40039 22.4 1.40039ZM18.2 9.60039L29.3 15.7004L18.2 21.8004V9.60039V9.60039Z" fill="#1D1D1B"/>
<path d="M21.4 0.400391C21.4 0.400391 8 0.400391 4.6 1.20039C2.9 1.70039 1.4 3.20039 0.9 4.90039C0 8.10039 0 14.7004 0 14.7004C0 14.7004 0 21.4004 0.9 24.5004C1.4 26.2004 2.9 27.6004 4.7 28.1004C8 29.0004 21.4 29.0004 21.4 29.0004C21.4 29.0004 34.8 29.0004 38.2 28.2004C40 27.7004 41.5 26.4004 42 24.6004C42.9 21.4004 42.9 14.8004 42.9 14.8004C42.9 14.8004 42.9 8.10039 42 4.90039C41.5 3.20039 40.1 1.80039 38.2 1.30039C34.8 0.400391 21.4 0.400391 21.4 0.400391ZM17.2 8.60039L28.3 14.7004L17.2 20.8004V8.60039V8.60039Z" fill="#BF2742"/>
</svg>
